<svg xmlns="http://www.w3.org/2000/svg" xmlns:xlink="http://www.w3.org/1999/xlink" width="49" height="71.859" viewBox="0 0 49 71.859">
  <defs>
    <filter id="Path_1289" x="0" y="54.346" width="49" height="17.513" filterUnits="userSpaceOnUse">
      <feOffset dy="1" input="SourceAlpha"/>
      <feGaussianBlur stdDeviation="1.5" result="blur"/>
      <feFlood flood-color="#606060" flood-opacity="0.161"/>
      <feComposite operator="in" in2="blur"/>
      <feComposite in="SourceGraphic"/>
    </filter>
  </defs>
  <g id="Group_6057" data-name="Group 6057" transform="translate(-935.5 -1172.245)">
    <path id="Union_270" data-name="Union 270" d="M19.393,41.846V41.46a2.261,2.261,0,0,1-.882.182,2.218,2.218,0,0,1-.647-.1v.3H17.1v-.684a6.346,6.346,0,0,1-2.139-3.805L6.2,32.32a.757.757,0,0,1-.208-.176,3.661,3.661,0,0,1-5.7-1.391,3.654,3.654,0,0,1,1.946-4.784,3.57,3.57,0,0,1,.706-.217v-10A3.767,3.767,0,0,1,1.1,14.739a3.757,3.757,0,0,1,5.124-5.49A.756.756,0,0,1,6.4,9.107l8.462-4.864a3.831,3.831,0,0,1-.031-.489,3.76,3.76,0,1,1,7.519,0,3.835,3.835,0,0,1-.042.568l8.6,4.945a3.757,3.757,0,1,1,3.949,6.277,3.641,3.641,0,0,1-.679.213c.006.068.009.14.009.211v9.963a3.672,3.672,0,0,1,.669.211,3.756,3.756,0,1,1-4.034,6.2l-8.612,4.97a.731.731,0,0,1-.159.069,6.684,6.684,0,0,1-1.9,3.6v.867Zm1.348-21.417a2.26,2.26,0,0,1-1.462,2.114V28.15c1.743.634,3.055,3.382,3.055,6.677q0,.336-.018.664l7.63-4.4-.011-.026a3.758,3.758,0,0,1-.088-2.695L23.792,24.76c-.139.167-.287.327-.441.479a6.855,6.855,0,0,1-1.019.831,6.978,6.978,0,0,1-1.168.627,6.908,6.908,0,0,1-1.446.426h0v-1.6a5.3,5.3,0,1,0-2.48,0V27.12a6.885,6.885,0,0,1-3.619-1.881c-.126-.124-.247-.254-.363-.387L7.19,28.39a3.673,3.673,0,0,1,.122.942,3.619,3.619,0,0,1-.287,1.421q-.052.122-.112.239l.04.021L14.7,35.468c-.012-.211-.017-.425-.017-.641,0-3.3,1.316-6.052,3.064-6.68V22.57a2.261,2.261,0,1,1,2.99-2.141Zm10.419,9.219a2.232,2.232,0,1,0,2.232-2.229A2.233,2.233,0,0,0,31.161,29.648Zm-29.68-.27A2.17,2.17,0,1,0,3.651,27.21,2.171,2.171,0,0,0,1.48,29.378ZM24.911,17.988a6.751,6.751,0,0,1-.085,5.088q-.089.208-.192.41l6,3.574c.035-.039.072-.076.109-.113a3.746,3.746,0,0,1,1.2-.8,3.682,3.682,0,0,1,.731-.223v-9.95c0-.068,0-.133.008-.2a3.762,3.762,0,0,1-1.933-1.03c-.045-.045-.089-.092-.132-.139ZM6.419,14.739a3.761,3.761,0,0,1-1.952,1.034v10a3.548,3.548,0,0,1,.613.2,3.642,3.642,0,0,1,1.162.782,3.715,3.715,0,0,1,.253.28l5.9-3.44q-.134-.252-.246-.515a6.755,6.755,0,0,1-.048-5.182L6.531,14.622C6.494,14.662,6.457,14.7,6.419,14.739Zm14.834-8.33A3.748,3.748,0,0,1,19.28,7.447v6.224a6.869,6.869,0,0,1,1.885.49,6.978,6.978,0,0,1,1.168.627,6.878,6.878,0,0,1,1.859,1.838l.008.011,5.636-3.352a3.753,3.753,0,0,1,.1-2.661c.02-.047.041-.094.062-.139L21.775,5.757A3.727,3.727,0,0,1,21.253,6.409ZM7.177,10.44l-.028.015c.027.055.052.112.076.168a3.765,3.765,0,0,1,.089,2.69l5.513,3.24a6.887,6.887,0,0,1,4.924-2.889V7.414a3.656,3.656,0,0,1-.622-.2,3.776,3.776,0,0,1-1.741-1.495Zm23.984,1.691A2.232,2.232,0,1,0,33.393,9.9,2.233,2.233,0,0,0,31.161,12.131Zm-29.639,0A2.232,2.232,0,1,0,3.755,9.9,2.234,2.234,0,0,0,1.522,12.131ZM16.356,3.8a2.232,2.232,0,1,0,2.233-2.229A2.233,2.233,0,0,0,16.356,3.8Z" transform="translate(940.999 1172.245)" fill="#e1e1e1"/>
    <g id="Group_6037" data-name="Group 6037" transform="translate(940 1230.091)">
      <g transform="matrix(1, 0, 0, 1, -4.5, -57.85)" filter="url(#Path_1289)">
        <path id="Path_1289-2" data-name="Path 1289" d="M35.733,8.513a4.749,4.749,0,0,1-1.641-.274,3.6,3.6,0,0,1-1.3-.812,3.653,3.653,0,0,1-.852-1.333,5.222,5.222,0,0,1-.306-1.837,5.222,5.222,0,0,1,.306-1.837,3.652,3.652,0,0,1,.852-1.333,3.6,3.6,0,0,1,1.3-.812A4.749,4.749,0,0,1,35.733,0,4.963,4.963,0,0,1,37.4.274a3.883,3.883,0,0,1,1.355.812,3.706,3.706,0,0,1,.91,1.333A4.872,4.872,0,0,1,40,4.257a4.872,4.872,0,0,1-.333,1.837,3.705,3.705,0,0,1-.91,1.333,3.885,3.885,0,0,1-1.355.812A4.963,4.963,0,0,1,35.733,8.513ZM34.128,6.059h0l.408.067a1.917,1.917,0,0,0,.331.192l.228.3a.225.225,0,0,0,.225.2H36.3a.224.224,0,0,0,.225-.193l.228-.3a1.954,1.954,0,0,0,.331-.193l.409-.066a.229.229,0,0,0,.083.016.223.223,0,0,0,.2-.115l.489-.846a.229.229,0,0,0-.057-.291l-.18-.366a1.847,1.847,0,0,0,.011-.192,1.787,1.787,0,0,0-.011-.192l.18-.366a.23.23,0,0,0,.055-.292l-.487-.842a.224.224,0,0,0-.2-.117.245.245,0,0,0-.085.016L37.081,2.4a1.894,1.894,0,0,0-.332-.192l-.228-.3a.225.225,0,0,0-.225-.2H35.32a.224.224,0,0,0-.224.193l-.228.3a1.942,1.942,0,0,0-.331.192l-.409.066a.22.22,0,0,0-.08-.015.228.228,0,0,0-.2.114l-.487.843a.228.228,0,0,0,.055.294l.18.366a1.674,1.674,0,0,0,0,.384l-.18.366a.23.23,0,0,0-.055.292l.487.842a.221.221,0,0,0,.2.117.247.247,0,0,0,.085-.016ZM29.534,8.4h0l-5.18,0a.919.919,0,0,1-.9-.447,1.074,1.074,0,0,1-.053-.722,2.278,2.278,0,0,1,.409-.838l3.378-4.5a.121.121,0,0,0,.03-.122c-.016-.032-.059-.05-.121-.05H24.055a.612.612,0,0,1-.444-.152.582.582,0,0,1-.156-.434V.7a.582.582,0,0,1,.156-.434.612.612,0,0,1,.444-.152H28.7a.915.915,0,0,1,.894.446,1.069,1.069,0,0,1,.051.721,2.271,2.271,0,0,1-.41.834L25.861,6.621a.121.121,0,0,0-.03.122c.016.032.059.05.121.05H30.94L29.534,8.4Zm-9.353,0h-.659a.612.612,0,0,1-.444-.152.582.582,0,0,1-.156-.434V.7a.582.582,0,0,1,.156-.434.612.612,0,0,1,.444-.152h.659a.612.612,0,0,1,.444.152A.582.582,0,0,1,20.782.7V7.812a.582.582,0,0,1-.156.434A.612.612,0,0,1,20.182,8.4Zm-4.237,0h-.678a.708.708,0,0,1-.431-.124A.691.691,0,0,1,14.6,7.9l-.47-1.631H10.481L10.011,7.9a.691.691,0,0,1-.24.373A.708.708,0,0,1,9.34,8.4H8.668a.545.545,0,0,1-.461-.184.526.526,0,0,1-.041-.479L9.894,2.109a5.317,5.317,0,0,1,.4-1,2.265,2.265,0,0,1,.5-.651,1.74,1.74,0,0,1,.657-.355A3,3,0,0,1,12.306,0a3.056,3.056,0,0,1,.861.106,1.757,1.757,0,0,1,.663.353,2.207,2.207,0,0,1,.5.651,5,5,0,0,1,.384,1l1.728,5.627a.734.734,0,0,1,.037.212.421.421,0,0,1-.143.333A.6.6,0,0,1,15.945,8.4ZM12.306,1.536a.5.5,0,0,0-.4.153,1.462,1.462,0,0,0-.272.574l-.724,2.511H13.7l-.717-2.511a1.461,1.461,0,0,0-.272-.574A.5.5,0,0,0,12.306,1.536ZM3.965,8.4H3.306a.612.612,0,0,1-.444-.152.582.582,0,0,1-.156-.434V1.727H.6a.612.612,0,0,1-.444-.152A.582.582,0,0,1,0,1.141V.7A.582.582,0,0,1,.156.267.612.612,0,0,1,.6.115H6.671a.612.612,0,0,1,.444.152A.582.582,0,0,1,7.27.7v.44a.582.582,0,0,1-.156.434.612.612,0,0,1-.444.152H4.564V7.812a.582.582,0,0,1-.156.434A.612.612,0,0,1,3.965,8.4Z" transform="translate(4.5 57.85)" fill="#e1e1e1"/>
      </g>
      <path id="Path_1290" data-name="Path 1290" d="M.922,0A.922.922,0,1,1,0,.922.922.922,0,0,1,.922,0Z" transform="translate(34.876 3.322)" fill="#e1e1e1"/>
    </g>
  </g>
</svg>
