<svg xmlns="http://www.w3.org/2000/svg" width="13.777" height="8.138" viewBox="0 0 13.777 8.138">
  <g id="down-arrow_1_" data-name="down-arrow (1)" transform="translate(0 -100.698)">
    <g id="Group_6219" data-name="Group 6219" transform="translate(0 100.698)">
      <path id="Path_11218" data-name="Path 11218" d="M13.557,101.378l-.451-.454a.755.755,0,0,0-1.066,0l-5.148,5.148-5.154-5.154a.756.756,0,0,0-1.066,0l-.451.452a.754.754,0,0,0,0,1.066l6.136,6.159a.77.77,0,0,0,.534.242h0a.77.77,0,0,0,.533-.242l6.131-6.142a.761.761,0,0,0,.22-.538A.754.754,0,0,0,13.557,101.378Z" transform="translate(0 -100.698)" fill="#b1bac5"/>
    </g>
  </g>
</svg>
