<svg xmlns="http://www.w3.org/2000/svg" width="30.713" height="30.851" viewBox="0 0 30.713 30.851">
  <path id="facebook" d="M26.316-.015l-23.528,0C1.629-.011.9.124.386.968-.05,1.671,0,2.2,0,3.537L0,26.306c.049,1.171-.213,2.75.579,3.649.735.841,1.785.753,3.9.706l9.136.162v-10.9H9.993V14.5h3.614V10.826a5.427,5.427,0,0,1,5.421-5.421h5.481v5.421H19.028V14.5h5.481l-.9,5.421H19.028v10.9l8.656-.192a2.637,2.637,0,0,0,2.31-.709c.819-.691.656-2.518.656-3.885l.032-21.5c0-1.106.189-2.945-.565-3.837C29.38-.183,27.7-.015,26.316-.015Zm0,0" transform="translate(0.009 0.028)" fill="rgba(242,242,242,0.54)"/>
</svg>
