<svg id="Group_6038" data-name="Group 6038" xmlns="http://www.w3.org/2000/svg" width="30.692" height="30.692" viewBox="0 0 30.692 30.692">
  <path id="Path_10848" data-name="Path 10848" d="M149.579,137.516a2.918,2.918,0,0,0-1.672-1.672,4.875,4.875,0,0,0-1.636-.3c-.929-.042-1.208-.052-3.561-.052s-2.632.009-3.561.051a4.878,4.878,0,0,0-1.636.3,2.919,2.919,0,0,0-1.673,1.672,4.877,4.877,0,0,0-.3,1.636c-.042.929-.052,1.208-.052,3.561s.009,2.632.052,3.561a4.876,4.876,0,0,0,.3,1.636,2.918,2.918,0,0,0,1.672,1.672,4.871,4.871,0,0,0,1.636.3c.929.042,1.208.051,3.561.051s2.632-.009,3.561-.051a4.87,4.87,0,0,0,1.636-.3,2.918,2.918,0,0,0,1.672-1.672,4.88,4.88,0,0,0,.3-1.636c.042-.929.051-1.208.051-3.561s-.009-2.632-.051-3.561A4.87,4.87,0,0,0,149.579,137.516Zm-6.869,9.722a4.525,4.525,0,1,1,4.525-4.525A4.525,4.525,0,0,1,142.709,147.238Zm4.7-8.171a1.057,1.057,0,1,1,1.057-1.057A1.058,1.058,0,0,1,147.413,139.066Zm0,0" transform="translate(-127.363 -127.367)" fill="rgba(255,255,255,0.54)"/>
  <path id="Path_10849" data-name="Path 10849" d="M212.875,209.937A2.937,2.937,0,1,1,209.937,207,2.937,2.937,0,0,1,212.875,209.937Zm0,0" transform="translate(-194.591 -194.591)" fill="rgba(242,242,242,0.54)"/>
  <path id="Path_10850" data-name="Path 10850" d="M28.479,0H2.214A2.213,2.213,0,0,0,0,2.214V28.479a2.213,2.213,0,0,0,2.214,2.214H28.479a2.213,2.213,0,0,0,2.214-2.214V2.214A2.213,2.213,0,0,0,28.479,0ZM24.105,18.979a6.465,6.465,0,0,1-.41,2.139A4.506,4.506,0,0,1,21.118,23.7a6.47,6.47,0,0,1-2.139.41c-.94.043-1.24.053-3.633.053s-2.693-.01-3.633-.053a6.47,6.47,0,0,1-2.139-.41A4.506,4.506,0,0,1,7,21.118a6.464,6.464,0,0,1-.41-2.139c-.043-.94-.053-1.24-.053-3.633s.01-2.693.053-3.633A6.466,6.466,0,0,1,7,9.574,4.509,4.509,0,0,1,9.574,7a6.471,6.471,0,0,1,2.139-.41c.94-.043,1.24-.053,3.633-.053s2.693.01,3.633.053A6.473,6.473,0,0,1,21.118,7,4.507,4.507,0,0,1,23.7,9.574a6.464,6.464,0,0,1,.41,2.139c.043.94.053,1.24.053,3.633S24.148,18.039,24.105,18.979Zm0,0" transform="translate(0 0)" fill="rgba(255,255,255,0.54)"/>
</svg>
