<svg xmlns="http://www.w3.org/2000/svg" width="30.563" height="30.563" viewBox="0 0 30.563 30.563">
  <path id="linkedin" d="M28.359,0H2.2A2.2,2.2,0,0,0,0,2.2V28.359a2.2,2.2,0,0,0,2.2,2.2H28.359a2.2,2.2,0,0,0,2.2-2.2V2.2a2.2,2.2,0,0,0-2.2-2.2ZM10.841,23.1H7.119V11.9h3.722ZM8.98,10.375H8.956A1.94,1.94,0,1,1,9,6.507a1.94,1.94,0,1,1-.025,3.869ZM24.261,23.1H20.54v-5.99c0-1.505-.539-2.532-1.885-2.532a2.037,2.037,0,0,0-1.909,1.361,2.549,2.549,0,0,0-.122.908V23.1H12.9s.049-10.146,0-11.2h3.722V13.49a3.7,3.7,0,0,1,3.354-1.848c2.449,0,4.285,1.6,4.285,5.039Zm0,0" transform="translate(0)" fill="rgba(255,255,255,0.54)"/>
</svg>
