<svg xmlns="http://www.w3.org/2000/svg" xmlns:xlink="http://www.w3.org/1999/xlink" width="551" height="281.017" viewBox="0 0 551 281.017">
  <defs>
    <clipPath id="clip-path">
      <rect id="Rectangle_2820" data-name="Rectangle 2820" width="59" height="73" transform="translate(0.128 0.232)" fill="#fff"/>
    </clipPath>
    <clipPath id="clip-path-2">
      <rect id="Rectangle_2826" data-name="Rectangle 2826" width="41" height="53" transform="translate(-0.26 0.25)" fill="none" stroke="#707070" stroke-width="1"/>
    </clipPath>
  </defs>
  <g id="Group_7250" data-name="Group 7250" transform="translate(-318 -333.867)">
    <path id="Path_12078" data-name="Path 12078" d="M551,131.025S427.654,44,275.5,44,0,131.025,0,131.025Z" transform="translate(318 482.614)" fill="#2bcf85" opacity="0.2"/>
    <g id="Group_6894" data-name="Group 6894" transform="translate(344.552 391.88)">
      <g id="Group_6893" data-name="Group 6893" transform="translate(0 0)">
        <g id="Group_6874" data-name="Group 6874" transform="translate(18.112)">
          <g id="Group_6868" data-name="Group 6868" transform="translate(0 29.584)">
            <path id="Path_11646" data-name="Path 11646" d="M380.556,195.244a25.65,25.65,0,0,1-2.572-4.368c-1.669-3.859-1.594-8.218-2.385-12.349-2.106-11-10.539-20.111-20.608-25.028,4.045,6.627,1.953,15.458,4.162,22.9a20.648,20.648,0,0,0,8.669,11.461C371.74,190.338,377.328,191.921,380.556,195.244Z" transform="translate(-354.992 -153.5)" fill="#d1e58c"/>
          </g>
          <g id="Group_6869" data-name="Group 6869" transform="translate(19.131 71.958)">
            <path id="Path_11647" data-name="Path 11647" d="M390.081,222.21c-1.41-3.46-1.614-7.286-2.643-10.878a24.766,24.766,0,0,0-13.327-15.486c2.628,4.07.917,9.624,2.373,14.243a15,15,0,0,0,5.231,7.047A54.056,54.056,0,0,0,390.081,222.21Z" transform="translate(-374.111 -195.847)" fill="#aacf2b"/>
          </g>
          <g id="Group_6870" data-name="Group 6870" transform="translate(52.267)">
            <path id="Path_11648" data-name="Path 11648" d="M412.658,175.4c-3.444-6-5.8-12.843-5.384-19.752.219-3.646,1.2-7.2,1.816-10.8a54.916,54.916,0,0,0-.467-20.916c5.611,3.827,8.7,9.734,10.906,16.16,2.384,6.952,3.958,14.818.848,21.476a43.071,43.071,0,0,1-2.759,4.675A65.886,65.886,0,0,0,412.658,175.4Z" transform="translate(-407.226 -123.934)" fill="#2bcf85"/>
          </g>
          <g id="Group_6871" data-name="Group 6871" transform="translate(48.446 50.976)">
            <path id="Path_11649" data-name="Path 11649" d="M414.4,203.889a35.75,35.75,0,0,0-10.558-29.011c-.528,6.269-1.1,12.487,1.728,18.106a28.989,28.989,0,0,0,3.257,4.858C410.353,199.776,412.725,202.083,414.4,203.889Z" transform="translate(-403.408 -174.878)" fill="#d1e58c"/>
          </g>
          <g id="Group_6872" data-name="Group 6872" transform="translate(72.892 17.642)">
            <path id="Path_11650" data-name="Path 11650" d="M429.238,179.512a43.343,43.343,0,0,0,11.51-23.648,47.637,47.637,0,0,0-.429-14.3c-.248,4.215-3.6,6.8-5.813,10.4-3.689,5.992-5.17,13.05-6.41,19.975A10.06,10.06,0,0,0,429.238,179.512Z" transform="translate(-427.838 -141.565)" fill="#00968e"/>
          </g>
          <g id="Group_6873" data-name="Group 6873" transform="translate(50.171 95.036)">
            <path id="Path_11651" data-name="Path 11651" d="M408.8,238.412a52.955,52.955,0,0,0-3.667-19.5,14.372,14.372,0,0,1,5.112,6.393,13.784,13.784,0,0,1,1.12,3.38C411.96,232.128,410.072,235.156,408.8,238.412Z" transform="translate(-405.132 -218.911)" fill="#d1e58c"/>
          </g>
        </g>
        <g id="Group_6892" data-name="Group 6892" transform="translate(0 9.438)">
          <g id="Group_6891" data-name="Group 6891">
            <g id="Group_6880" data-name="Group 6880" transform="translate(29.53 33.207)">
              <g id="Group_6877" data-name="Group 6877" transform="translate(13.747 2.322)">
                <path id="Path_11654" data-name="Path 11654" d="M392.94,206.9a142.658,142.658,0,0,1-9.106-18.1,47.723,47.723,0,0,1-3.634-19.933l1,.056a46.769,46.769,0,0,0,3.567,19.514,141.726,141.726,0,0,0,9.047,17.967Z" transform="translate(-380.14 -168.873)" fill="#577e1a"/>
              </g>
              <g id="Group_6879" data-name="Group 6879" transform="translate(40.593 2.04)">
                <path id="Path_11656" data-name="Path 11656" d="M407.957,247.818l-.987-.17c1.755-10.169,6.2-19.7,10.49-28.918,1.5-3.22,3.052-6.549,4.462-9.851,6.9-16.142,8.434-29.213,4.7-39.96l.947-.328c3.82,10.993,2.274,24.3-4.724,40.681-1.417,3.317-2.972,6.653-4.475,9.881C414.1,228.31,409.689,237.78,407.957,247.818Z" transform="translate(-406.97 -168.591)" fill="#577e1a"/>
              </g>
              <g id="Group_6875" data-name="Group 6875" transform="translate(13.693 47.774)">
                <path id="Path_11652" data-name="Path 11652" d="M403.672,249.648l-.993-.12c.023-.205,2.142-20.687-22.593-34.356l.484-.876C405.92,228.306,403.7,249.436,403.672,249.648Z" transform="translate(-380.086 -214.296)" fill="#577e1a"/>
              </g>
              <g id="Group_6876" data-name="Group 6876" transform="translate(0 18.599)">
                <path id="Path_11653" data-name="Path 11653" d="M405.367,249.286l-1-.028c.424-15.92-2.271-28.28-8.242-37.786C389,200.133,377,192.618,366.4,185.988l.531-.849c10.685,6.687,22.8,14.267,30.04,25.8C403.051,220.618,405.8,233.161,405.367,249.286Z" transform="translate(-366.402 -185.139)" fill="#577e1a"/>
              </g>
              <g id="Group_6878" data-name="Group 6878" transform="translate(40.018)">
                <path id="Path_11655" data-name="Path 11655" d="M407.373,250.3l-.978-.213,2.908-13.314a244.321,244.321,0,0,0,4.7-26.07,121.257,121.257,0,0,0-.026-25.752c-.647-6.006-1.889-12.81-6.184-17.743l.754-.657c4.477,5.142,5.76,12.133,6.425,18.293A122.276,122.276,0,0,1,415,210.811a244.594,244.594,0,0,1-4.722,26.177Z" transform="translate(-406.395 -166.552)" fill="#577e1a"/>
              </g>
            </g>
            <g id="Group_6890" data-name="Group 6890">
              <g id="Group_6881" data-name="Group 6881" transform="translate(0 35.279)">
                <path id="Path_11657" data-name="Path 11657" d="M374.42,191.024c-3.3-6.113-7.029-12.643-13.392-15.426a36.412,36.412,0,0,0-8.69-2.08c-5.354-.9-10.727-2.21-15.446-4.9,2.062,6.543,4.371,13.544,9.776,17.769a27.412,27.412,0,0,0,9.217,4.32A32.965,32.965,0,0,0,374.42,191.024Z" transform="translate(-336.891 -168.623)" fill="#aacf2b" opacity="0.54"/>
              </g>
              <g id="Group_6882" data-name="Group 6882" transform="translate(39.171 11.71)">
                <path id="Path_11658" data-name="Path 11658" d="M384.5,189.942a29.869,29.869,0,0,1-8.02-25.817c1.151-6.426,4.444-12.534,4.148-19.056,3.718,5.078,7.125,10.343,8.37,16.512C390.924,171.148,387.67,180.713,384.5,189.942Z" transform="translate(-376.037 -145.069)" fill="#aacf2b" opacity="0.83"/>
              </g>
              <g id="Group_6883" data-name="Group 6883" transform="translate(12.836 66.289)">
                <path id="Path_11659" data-name="Path 11659" d="M391.932,223.163c-2.454-2.953-4.317-6.343-6.525-9.483s-4.874-6.114-8.359-7.724c-4.057-1.874-8.711-1.691-13.153-2.18a42.356,42.356,0,0,1-14.176-4.162c1.113,6.064,5.554,10.995,10.753,14.308s11.323,4.908,17.438,5.688C382.721,220.223,388,220.319,391.932,223.163Z" transform="translate(-349.719 -199.614)" fill="#aacf2b" opacity="0.54"/>
              </g>
              <g id="Group_6884" data-name="Group 6884" transform="translate(59.091 4.72)">
                <path id="Path_11660" data-name="Path 11660" d="M413.164,177.169c-.06-8.3-.2-16.958-4-24.34-3.04-5.91-8.15-10.446-13.216-14.746A37.635,37.635,0,0,1,397.1,146.7c.217,4.871-.444,9.959,1.422,14.463a23.034,23.034,0,0,0,3.874,5.888A68.594,68.594,0,0,0,413.164,177.169Z" transform="translate(-395.945 -138.083)" fill="#2bcf85" opacity="0.54"/>
              </g>
              <g id="Group_6885" data-name="Group 6885" transform="translate(60.347 40.698)">
                <path id="Path_11661" data-name="Path 11661" d="M414.739,205.1c.715-6.048-2.909-11.729-6.887-16.339s-8.6-8.971-10.6-14.723c-.1,4.768-.143,9.849.885,14.506s3.31,9.206,7.147,12.038C408.075,202.646,412.05,202.9,414.739,205.1Z" transform="translate(-397.2 -174.039)" fill="#d1e58c" opacity="0.54"/>
              </g>
              <g id="Group_6886" data-name="Group 6886" transform="translate(82.776)">
                <path id="Path_11662" data-name="Path 11662" d="M429.261,183.61a42.772,42.772,0,0,0,2.629-28.529c-1.872-7.246-5.695-14.258-5.066-21.716-2.914,6.925-6.067,14.1-6.921,21.56s.129,15.323,3.952,21.79C425.442,179.4,427.661,180.934,429.261,183.61Z" transform="translate(-419.615 -133.366)" fill="#2bcf85" opacity="0.54"/>
              </g>
              <g id="Group_6887" data-name="Group 6887" transform="translate(32.732 92.243)">
                <path id="Path_11663" data-name="Path 11663" d="M400.342,236.268a15.546,15.546,0,0,0-10.548-6.712c-2.76-.408-5.572-.058-8.36-.194a24.081,24.081,0,0,1-11.832-3.81,14.915,14.915,0,0,0,7.37,11.359,19.75,19.75,0,0,0,13.813,2.376C394.174,238.672,396.924,236.692,400.342,236.268Z" transform="translate(-369.602 -225.551)" fill="#aacf2b" opacity="0.54"/>
              </g>
              <g id="Group_6888" data-name="Group 6888" transform="translate(63.704 65.688)">
                <path id="Path_11664" data-name="Path 11664" d="M402.785,226.264c-2.949-7.384-1.6-15.668-1.467-23.618a5.9,5.9,0,0,0-.764-3.633c5.551,5.6,7.265,14.722,4.542,22.12C404.384,223.067,403.3,224.268,402.785,226.264Z" transform="translate(-400.555 -199.013)" fill="#d1e58c" opacity="0.54"/>
              </g>
              <g id="Group_6889" data-name="Group 6889" transform="translate(77.712 81.922)">
                <path id="Path_11665" data-name="Path 11665" d="M414.554,226.752a9.948,9.948,0,0,1,1.746-3.5,9.476,9.476,0,0,1,1.4-1.218q2.747-2.068,5.623-3.957a11.54,11.54,0,0,0,3.353-2.838,10.777,10.777,0,0,1-.966,5.354,8.138,8.138,0,0,1-3.8,4.2,13.913,13.913,0,0,1-2.779.909C417.466,226.123,416.223,226.334,414.554,226.752Z" transform="translate(-414.554 -215.237)" fill="#d1e58c"/>
              </g>
            </g>
          </g>
        </g>
      </g>
      <path id="Path_11645" data-name="Path 11645" d="M375.494,248.9h55.035v54.034H391.171Z" transform="translate(-336.867 -123.856)" fill="#465c77"/>
    </g>
    <path id="Path_11666" data-name="Path 11666" d="M828.669,366.549H384.161l68.867-63.65H759.606Z" transform="translate(-11.796 233.135)" fill="#cbd4df"/>
    <g id="Group_6897" data-name="Group 6897" transform="translate(372.397 548.034)">
      <rect id="Rectangle_2751" data-name="Rectangle 2751" width="444.41" height="10.337" transform="translate(0 51.618)" fill="#364c68"/>
      <g id="Group_6896" data-name="Group 6896" transform="translate(53.183)">
        <g id="Group_6895" data-name="Group 6895">
          <path id="Path_11667" data-name="Path 11667" d="M596.451,332.7H490.411l3.932-9.379H593.3Z" transform="translate(-377.328 -303.356)" fill="#364c68"/>
          <path id="Path_11668" data-name="Path 11668" d="M586.342,332.7H563.06l-3.528-9.379h21.727Z" transform="translate(-338.262 -303.356)" fill="#364c68"/>
          <path id="Path_11669" data-name="Path 11669" d="M605.281,332.7H582l-5.435-9.379h21.727Z" transform="translate(-328.637 -303.356)" fill="#364c68"/>
          <path id="Path_11670" data-name="Path 11670" d="M627.981,332.7H604.7l-7.722-9.379H618.7Z" transform="translate(-317.099 -303.356)" fill="#364c68"/>
          <path id="Path_11671" data-name="Path 11671" d="M463.942,332.7H418.161l11.484-9.379h42.724Z" transform="translate(-418.161 -303.356)" fill="#364c68"/>
          <path id="Path_11672" data-name="Path 11672" d="M474.068,332.7H450.786l8.074-9.379h21.727Z" transform="translate(-399.722 -303.356)" fill="#364c68"/>
          <path id="Path_11673" data-name="Path 11673" d="M495.943,332.7H472.661l5.788-9.379h21.727Z" transform="translate(-387.359 -303.356)" fill="#364c68"/>
          <path id="Path_11674" data-name="Path 11674" d="M505.7,324.48H484.413l4.193-7.887h19.981Z" transform="translate(-380.718 -307.159)" fill="#364c68"/>
          <path id="Path_11675" data-name="Path 11675" d="M488.442,324.48H467.154l5.852-7.887h19.981Z" transform="translate(-390.472 -307.159)" fill="#364c68"/>
          <path id="Path_11676" data-name="Path 11676" d="M480.338,324.48H427.683l9.646-7.887H486.75Z" transform="translate(-412.779 -307.159)" fill="#364c68"/>
          <path id="Path_11677" data-name="Path 11677" d="M522.922,324.48H501.633l2.538-7.887h19.981Z" transform="translate(-370.985 -307.159)" fill="#364c68"/>
          <path id="Path_11678" data-name="Path 11678" d="M515.66,317.232H496.137l2.826-6.666h18.417Z" transform="translate(-374.091 -310.566)" fill="#364c68"/>
          <path id="Path_11679" data-name="Path 11679" d="M497.632,317.232H478.109l4.423-6.666H500.95Z" transform="translate(-384.28 -310.566)" fill="#364c68"/>
          <path id="Path_11680" data-name="Path 11680" d="M479.6,317.232H460.081l6.02-6.666h18.417Z" transform="translate(-394.469 -310.566)" fill="#364c68"/>
          <path id="Path_11681" data-name="Path 11681" d="M461.576,317.232H442.053l7.618-6.666h18.417Z" transform="translate(-404.658 -310.566)" fill="#364c68"/>
          <path id="Path_11682" data-name="Path 11682" d="M531.591,317.232H512.069l1.415-6.666H531.9Z" transform="translate(-365.087 -310.566)" fill="#364c68"/>
          <path id="Path_11683" data-name="Path 11683" d="M547.523,317.232H528l0-6.666h18.417Z" transform="translate(-356.083 -310.566)" fill="#364c68"/>
          <path id="Path_11684" data-name="Path 11684" d="M563.964,317.232H544.441l-1.408-6.666H561.45Z" transform="translate(-347.587 -310.566)" fill="#364c68"/>
          <path id="Path_11685" data-name="Path 11685" d="M580.4,317.232H560.883l-2.82-6.666H576.48Z" transform="translate(-339.093 -310.566)" fill="#364c68"/>
          <path id="Path_11686" data-name="Path 11686" d="M596.847,317.232H577.324l-4.231-6.666H591.51Z" transform="translate(-330.598 -310.566)" fill="#364c68"/>
          <path id="Path_11687" data-name="Path 11687" d="M613.288,317.232H593.766l-5.643-6.666H606.54Z" transform="translate(-322.104 -310.566)" fill="#364c68"/>
          <path id="Path_11688" data-name="Path 11688" d="M540.143,324.48H518.854l.883-7.887h19.981Z" transform="translate(-361.252 -307.159)" fill="#364c68"/>
          <path id="Path_11689" data-name="Path 11689" d="M557.642,324.48H536.354l-.773-7.887h19.981Z" transform="translate(-351.799 -307.159)" fill="#364c68"/>
          <path id="Path_11690" data-name="Path 11690" d="M575.461,324.48H554.172l-2.428-7.887h19.981Z" transform="translate(-342.664 -307.159)" fill="#364c68"/>
          <path id="Path_11691" data-name="Path 11691" d="M593.279,324.48H571.991l-4.083-7.887h19.981Z" transform="translate(-333.529 -307.159)" fill="#364c68"/>
          <path id="Path_11692" data-name="Path 11692" d="M611.1,324.48H589.809l-5.738-7.887h19.981Z" transform="translate(-324.394 -307.159)" fill="#364c68"/>
          <path id="Path_11693" data-name="Path 11693" d="M628.916,324.48H607.628l-7.394-7.887h19.981Z" transform="translate(-315.259 -307.159)" fill="#364c68"/>
          <path id="Path_11694" data-name="Path 11694" d="M649.9,332.7H626.621l-9.929-9.379h21.727Z" transform="translate(-305.957 -303.356)" fill="#364c68"/>
        </g>
      </g>
    </g>
    <g id="Group_6899" data-name="Group 6899" transform="translate(433.928 333.867)">
      <rect id="Rectangle_2752" data-name="Rectangle 2752" width="321.382" height="202.428" rx="6" fill="#cbd4df"/>
    </g>
    <rect id="Rectangle_2753" data-name="Rectangle 2753" width="189.906" height="308.861" rx="2" transform="translate(749.049 340.128) rotate(90)" fill="#fff"/>
    <g id="Group_6927" data-name="Group 6927" transform="translate(440.188 340.128)">
      <path id="Path_11725" data-name="Path 11725" d="M736.355,187.254v-6.391a3.134,3.134,0,0,0-3.13-3.13h-302.6a3.133,3.133,0,0,0-3.13,3.13v6.391Z" transform="translate(-427.494 -177.733)" fill="#465c77"/>
      <g id="Group_6926" data-name="Group 6926" transform="translate(275.731 2.478)">
        <ellipse id="Ellipse_894" data-name="Ellipse 894" cx="1.956" cy="1.956" rx="1.956" ry="1.956" fill="#ffa034"/>
        <ellipse id="Ellipse_895" data-name="Ellipse 895" cx="1.956" cy="1.956" rx="1.956" ry="1.956" transform="translate(9.521)" fill="#ff5553"/>
        <ellipse id="Ellipse_896" data-name="Ellipse 896" cx="1.956" cy="1.956" rx="1.956" ry="1.956" transform="translate(19.043)" fill="#00b7ad"/>
      </g>
    </g>
    <rect id="Rectangle_2749" data-name="Rectangle 2749" width="548.503" height="0.832" transform="translate(320.497 614.052)" fill="#364c68" opacity="0.4"/>
    <g id="Group_7249" data-name="Group 7249" transform="translate(461.163 358.229)">
      <g id="Character_3" data-name="Character 3" transform="translate(180.771 20.478)">
        <g id="Group_7135" data-name="Group 7135" transform="translate(0 0)">
          <rect id="Rectangle_2812" data-name="Rectangle 2812" width="65.895" height="110.091" fill="#e4edf6"/>
          <g id="Group_7069" data-name="Group 7069" transform="translate(15.197 64.829)">
            <path id="Path_11880" data-name="Path 11880" d="M492.972,238.273l.706,1.431,1.579.229-1.143,1.114.27,1.573-1.412-.742-1.412.742.27-1.573-1.143-1.114,1.579-.229Z" transform="translate(-490.687 -238.273)" fill="#2bcf85"/>
            <path id="Path_11881" data-name="Path 11881" d="M506.968,238.273l.706,1.431,1.579.229-1.143,1.114.27,1.573-1.412-.742-1.412.742.27-1.573-1.143-1.114,1.579-.229Z" transform="translate(-496.836 -238.273)" fill="#2bcf85"/>
            <path id="Path_11882" data-name="Path 11882" d="M520.963,238.273l.706,1.431,1.579.229-1.143,1.114.27,1.573-1.412-.742-1.412.742.27-1.573-1.143-1.114,1.579-.229Z" transform="translate(-502.986 -238.273)" fill="#2bcf85"/>
            <path id="Path_11883" data-name="Path 11883" d="M534.958,238.273l.706,1.431,1.579.229-1.143,1.114.27,1.573-1.412-.742-1.412.742.27-1.573-1.143-1.114,1.579-.229Z" transform="translate(-509.135 -238.273)" fill="#2bcf85"/>
            <path id="Path_11884" data-name="Path 11884" d="M548.953,238.273l.706,1.431,1.579.229-1.143,1.114.27,1.573-1.412-.742-1.412.742.27-1.573-1.143-1.114,1.579-.229Z" transform="translate(-515.284 -238.273)" fill="#2bcf85"/>
          </g>
          <g id="Group_7076" data-name="Group 7076" transform="translate(7.912 77.589)">
            <g id="Group_7070" data-name="Group 7070">
              <path id="Path_11885" data-name="Path 11885" d="M500.039,261.178c0,.081-5,.146-11.172.146s-11.174-.065-11.174-.146,5-.146,11.174-.146S500.039,261.1,500.039,261.178Z" transform="translate(-477.693 -261.032)" fill="#2bcf85"/>
            </g>
            <g id="Group_7071" data-name="Group 7071" transform="translate(0.588 4.851)">
              <path id="Path_11886" data-name="Path 11886" d="M528.579,269.831c0,.081-11.157.146-24.917.146s-24.92-.065-24.92-.146,11.155-.146,24.92-.146S528.579,269.751,528.579,269.831Z" transform="translate(-478.742 -269.685)" fill="#263238"/>
            </g>
            <g id="Group_7072" data-name="Group 7072" transform="translate(0.588 9.02)">
              <path id="Path_11887" data-name="Path 11887" d="M528.579,277.267c0,.081-11.157.146-24.917.146s-24.92-.066-24.92-.146,11.155-.146,24.92-.146S528.579,277.186,528.579,277.267Z" transform="translate(-478.742 -277.121)" fill="#263238"/>
            </g>
            <g id="Group_7073" data-name="Group 7073" transform="translate(0.588 13.188)">
              <path id="Path_11888" data-name="Path 11888" d="M528.579,284.7c0,.081-11.157.146-24.917.146s-24.92-.065-24.92-.146,11.155-.146,24.92-.146S528.579,284.622,528.579,284.7Z" transform="translate(-478.742 -284.556)" fill="#263238"/>
            </g>
            <g id="Group_7074" data-name="Group 7074" transform="translate(0.588 17.357)">
              <path id="Path_11889" data-name="Path 11889" d="M528.579,292.138c0,.081-11.157.146-24.917.146s-24.92-.066-24.92-.146,11.155-.146,24.92-.146S528.579,292.057,528.579,292.138Z" transform="translate(-478.742 -291.992)" fill="#263238"/>
            </g>
            <g id="Group_7075" data-name="Group 7075" transform="translate(0.588 21.525)">
              <path id="Path_11890" data-name="Path 11890" d="M528.579,299.573c0,.08-11.157.146-24.917.146s-24.92-.066-24.92-.146,11.155-.146,24.92-.146S528.579,299.493,528.579,299.573Z" transform="translate(-478.742 -299.427)" fill="#263238"/>
            </g>
          </g>
          <g id="Group_7134" data-name="Group 7134" transform="translate(4.336 5.59)">
            <rect id="Rectangle_2813" data-name="Rectangle 2813" width="56.762" height="54.494" fill="#dbdfe3"/>
          </g>
        </g>
      </g>
      <g id="Character_2" data-name="Character 2" transform="translate(83.2 0)">
        <g id="Group_7190" data-name="Group 7190" transform="translate(0 0)">
          <rect id="Rectangle_2814" data-name="Rectangle 2814" width="93.925" height="156.921" fill="#e4edf6"/>
          <g id="Group_7136" data-name="Group 7136" transform="translate(21.661 92.406)">
            <path id="Path_11917" data-name="Path 11917" d="M331.432,250.936l1.007,2.039,2.251.327-1.629,1.587.384,2.242-2.013-1.058-2.013,1.058.384-2.242-1.629-1.587,2.251-.327Z" transform="translate(-328.175 -250.936)" fill="#2bcf85"/>
            <path id="Path_11918" data-name="Path 11918" d="M351.38,250.936l1.007,2.039,2.251.327-1.629,1.587.384,2.242-2.013-1.058-2.013,1.058.384-2.242-1.629-1.587,2.251-.327Z" transform="translate(-336.94 -250.936)" fill="#2bcf85"/>
            <path id="Path_11919" data-name="Path 11919" d="M371.329,250.936l1.007,2.039,2.251.327-1.629,1.587.384,2.242-2.013-1.058-2.013,1.058.384-2.242-1.629-1.587,2.251-.327Z" transform="translate(-345.705 -250.936)" fill="#2bcf85"/>
            <path id="Path_11920" data-name="Path 11920" d="M391.277,250.936l1.006,2.039,2.251.327-1.629,1.587.384,2.242-2.013-1.058-2.013,1.058.384-2.242L388.02,253.3l2.251-.327Z" transform="translate(-354.47 -250.936)" fill="#2bcf85"/>
            <path id="Path_11921" data-name="Path 11921" d="M411.225,250.936l1.007,2.039,2.251.327-1.629,1.587.384,2.242-2.013-1.058-2.013,1.058.384-2.242-1.629-1.587,2.251-.327Z" transform="translate(-363.235 -250.936)" fill="#2bcf85"/>
          </g>
          <g id="Group_7143" data-name="Group 7143" transform="translate(11.278 110.654)">
            <g id="Group_7137" data-name="Group 7137">
              <path id="Path_11922" data-name="Path 11922" d="M341.5,283.632c0,.08-7.131.146-15.925.146s-15.926-.066-15.926-.146,7.129-.146,15.926-.146S341.5,283.552,341.5,283.632Z" transform="translate(-309.653 -283.486)" fill="#2bcf85"/>
            </g>
            <g id="Group_7138" data-name="Group 7138" transform="translate(0.838 6.915)">
              <path id="Path_11923" data-name="Path 11923" d="M382.185,295.967c0,.081-15.9.146-35.517.146s-35.52-.066-35.52-.146,15.9-.146,35.52-.146S382.185,295.887,382.185,295.967Z" transform="translate(-311.148 -295.821)" fill="#263238"/>
            </g>
            <g id="Group_7139" data-name="Group 7139" transform="translate(0.838 12.857)">
              <path id="Path_11924" data-name="Path 11924" d="M382.185,306.565c0,.081-15.9.146-35.517.146s-35.52-.065-35.52-.146,15.9-.146,35.52-.146S382.185,306.485,382.185,306.565Z" transform="translate(-311.148 -306.419)" fill="#263238"/>
            </g>
            <g id="Group_7140" data-name="Group 7140" transform="translate(0.838 18.799)">
              <path id="Path_11925" data-name="Path 11925" d="M382.185,317.164c0,.081-15.9.146-35.517.146s-35.52-.065-35.52-.146,15.9-.146,35.52-.146S382.185,317.083,382.185,317.164Z" transform="translate(-311.148 -317.018)" fill="#263238"/>
            </g>
            <g id="Group_7141" data-name="Group 7141" transform="translate(0.838 24.74)">
              <path id="Path_11926" data-name="Path 11926" d="M382.185,327.762c0,.081-15.9.146-35.517.146s-35.52-.066-35.52-.146,15.9-.146,35.52-.146S382.185,327.682,382.185,327.762Z" transform="translate(-311.148 -327.616)" fill="#263238"/>
            </g>
            <g id="Group_7142" data-name="Group 7142" transform="translate(0.838 30.681)">
              <path id="Path_11927" data-name="Path 11927" d="M382.185,338.36c0,.08-15.9.146-35.517.146s-35.52-.066-35.52-.146,15.9-.146,35.52-.146S382.185,338.28,382.185,338.36Z" transform="translate(-311.148 -338.214)" fill="#263238"/>
            </g>
          </g>
          <g id="Group_7189" data-name="Group 7189" transform="translate(6.181 7.967)">
            <rect id="Rectangle_2815" data-name="Rectangle 2815" width="80.907" height="77.673" fill="#465c77" opacity="0.15"/>
          </g>
        </g>
      </g>
      <g id="Character_1" data-name="Character 1" transform="translate(13.871 23.653)">
        <g id="Group_7229" data-name="Group 7229" transform="translate(0 0)">
          <rect id="Rectangle_2816" data-name="Rectangle 2816" width="65.895" height="110.091" fill="#e4edf6"/>
          <g id="Group_7191" data-name="Group 7191" transform="translate(15.197 64.829)">
            <path id="Path_11962" data-name="Path 11962" d="M195.263,243.937l.706,1.431,1.579.229-1.143,1.114.27,1.573-1.412-.743-1.412.743.27-1.573-1.143-1.114,1.579-.229Z" transform="translate(-192.978 -243.937)" fill="#2bcf85"/>
            <path id="Path_11963" data-name="Path 11963" d="M209.258,243.937l.706,1.431,1.579.229-1.143,1.114.27,1.573-1.412-.743-1.412.743.27-1.573-1.143-1.114,1.579-.229Z" transform="translate(-199.127 -243.937)" fill="#2bcf85"/>
            <path id="Path_11964" data-name="Path 11964" d="M223.253,243.937l.706,1.431,1.579.229-1.143,1.114.27,1.573-1.412-.743-1.412.743.27-1.573-1.143-1.114,1.579-.229Z" transform="translate(-205.276 -243.937)" fill="#2bcf85"/>
            <path id="Path_11965" data-name="Path 11965" d="M237.248,243.937l.706,1.431,1.579.229-1.143,1.114.27,1.573-1.412-.743-1.412.743.27-1.573-1.143-1.114,1.579-.229Z" transform="translate(-211.425 -243.937)" fill="#2bcf85"/>
            <path id="Path_11966" data-name="Path 11966" d="M251.244,243.937l.706,1.431,1.579.229-1.143,1.114.27,1.573-1.412-.743-1.412.743.27-1.573-1.143-1.114,1.579-.229Z" transform="translate(-217.575 -243.937)" fill="#2bcf85"/>
          </g>
          <g id="Group_7198" data-name="Group 7198" transform="translate(7.912 77.588)">
            <g id="Group_7192" data-name="Group 7192">
              <path id="Path_11967" data-name="Path 11967" d="M202.329,266.841c0,.081-5,.146-11.173.146s-11.174-.065-11.174-.146,5-.146,11.174-.146S202.329,266.761,202.329,266.841Z" transform="translate(-179.983 -266.695)" fill="#2bcf85"/>
            </g>
            <g id="Group_7193" data-name="Group 7193" transform="translate(0.588 4.852)">
              <path id="Path_11968" data-name="Path 11968" d="M230.87,275.5c0,.08-11.157.146-24.918.146s-24.92-.066-24.92-.146,11.155-.146,24.92-.146S230.87,275.415,230.87,275.5Z" transform="translate(-181.032 -275.349)" fill="#263238"/>
            </g>
            <g id="Group_7194" data-name="Group 7194" transform="translate(0.588 9.02)">
              <path id="Path_11969" data-name="Path 11969" d="M230.87,282.931c0,.081-11.157.146-24.918.146s-24.92-.066-24.92-.146,11.155-.146,24.92-.146S230.87,282.85,230.87,282.931Z" transform="translate(-181.032 -282.785)" fill="#263238"/>
            </g>
            <g id="Group_7195" data-name="Group 7195" transform="translate(0.588 13.188)">
              <path id="Path_11970" data-name="Path 11970" d="M230.87,290.366c0,.081-11.157.146-24.918.146s-24.92-.066-24.92-.146,11.155-.146,24.92-.146S230.87,290.286,230.87,290.366Z" transform="translate(-181.032 -290.22)" fill="#263238"/>
            </g>
            <g id="Group_7196" data-name="Group 7196" transform="translate(0.588 17.357)">
              <path id="Path_11971" data-name="Path 11971" d="M230.87,297.8c0,.081-11.157.146-24.918.146s-24.92-.065-24.92-.146,11.155-.146,24.92-.146S230.87,297.721,230.87,297.8Z" transform="translate(-181.032 -297.656)" fill="#263238"/>
            </g>
            <g id="Group_7197" data-name="Group 7197" transform="translate(0.588 21.525)">
              <path id="Path_11972" data-name="Path 11972" d="M230.87,305.237c0,.081-11.157.146-24.918.146s-24.92-.066-24.92-.146,11.155-.146,24.92-.146S230.87,305.157,230.87,305.237Z" transform="translate(-181.032 -305.091)" fill="#263238"/>
            </g>
          </g>
          <g id="Group_7228" data-name="Group 7228" transform="translate(4.232 5.59)">
            <rect id="Rectangle_2817" data-name="Rectangle 2817" width="56.762" height="54.494" fill="#dbdfe3"/>
          </g>
        </g>
      </g>
      <g id="Arrows" transform="translate(0 72.253)">
        <g id="Group_7234" data-name="Group 7234" transform="translate(0 0)">
          <g id="Group_7231" data-name="Group 7231" transform="translate(241.329)">
            <ellipse id="Ellipse_897" data-name="Ellipse 897" cx="8.213" cy="8.213" rx="8.213" ry="8.213" transform="translate(0 15.981) rotate(-76.632)" fill="#e0e0e0"/>
            <g id="Group_7230" data-name="Group 7230" transform="translate(8.642 6.39)">
              <path id="Path_11988" data-name="Path 11988" d="M587.016,233.384a8.471,8.471,0,0,1,1.154-1.067c.737-.632,1.768-1.489,2.921-2.425l0,.224-.057-.05c-1.135-.985-2.152-1.889-2.878-2.555a8.711,8.711,0,0,1-1.136-1.122,8.624,8.624,0,0,1,1.271.967c.761.626,1.8,1.5,2.934,2.49l.058.05.131.114-.135.11c-1.154.935-2.206,1.767-2.976,2.357A8.476,8.476,0,0,1,587.016,233.384Z" transform="translate(-587.015 -226.387)" fill="#263238"/>
            </g>
          </g>
          <g id="Group_7233" data-name="Group 7233" transform="translate(0 0.009)">
            <ellipse id="Ellipse_898" data-name="Ellipse 898" cx="8.213" cy="8.213" rx="8.213" ry="8.213" transform="translate(0 15.987) rotate(-76.718)" fill="#e0e0e0"/>
            <g id="Group_7232" data-name="Group 7232" transform="translate(6.733 6.381)">
              <path id="Path_11989" data-name="Path 11989" d="M157.533,226.388a8.482,8.482,0,0,1-1.154,1.067c-.737.631-1.768,1.489-2.921,2.425l0-.224.057.05c1.135.986,2.152,1.889,2.878,2.555a8.693,8.693,0,0,1,1.136,1.123,8.7,8.7,0,0,1-1.271-.967c-.761-.625-1.8-1.5-2.934-2.49l-.058-.05-.131-.114.135-.109c1.154-.935,2.206-1.767,2.976-2.357A8.415,8.415,0,0,1,157.533,226.388Z" transform="translate(-153.139 -226.387)" fill="#263238"/>
            </g>
          </g>
        </g>
      </g>
      <g id="Magnifying_glass" data-name="Magnifying glass" transform="translate(73.032 3.006)">
        <g id="Group_7235" data-name="Group 7235" transform="translate(0 0)">
          <path id="Path_11990" data-name="Path 11990" d="M288.966,82.715a56.707,56.707,0,0,0,10,104.3h0a56.668,56.668,0,0,0,51.489-9.559l47.787,59.777,7.31-5.843-48.19-60.281A56.368,56.368,0,0,0,369.787,149.4a57.775,57.775,0,0,0,1.485-5.961,56.712,56.712,0,0,0-82.305-60.723Zm40.463,4.809a47.346,47.346,0,1,1-36.072,3.456A47.034,47.034,0,0,1,329.429,87.524Z" transform="translate(-258.855 -76.063)" fill="#455a64"/>
        </g>
      </g>
      <g id="Mask_Group_3" data-name="Mask Group 3" transform="translate(100.708 11.539)" clip-path="url(#clip-path)">
        <g id="Group_7240" data-name="Group 7240" transform="translate(1.438 4.416)">
          <path id="Path_11992" data-name="Path 11992" d="M944.821,138.417c.025-1.968.131-1.816.483-8.187,0,0-2.867-6.736-3.355-8.623-.145-.321-2.352-5.972-1.576-7.743,1.009-2.307,3.284-10.867,5.171-10.6,1.381.2,2.688,2.57,4.286,6,1.311,2.81,3.416,11.088,3.416,11.088.878,2.616,1.562,8.2,1.875,9.567.2.863-.11,2.326-.505,4.615-.474,2.743-1.536,4.981-3.089,6.223l-3.094-.82C948.026,139.841,944.816,138.834,944.821,138.417Z" transform="translate(-899.327 -68.889)" fill="#ee602a"/>
          <path id="Path_11994" data-name="Path 11994" d="M914.53,114.133c1.4-4.692,10.741-19.924,10.454-20.546-.3-.645.91-.049-2.7-2.017s-3.13-5.487-3.162-6.488h-9.308a7.436,7.436,0,0,1-2.776,6.7c-3.216,2.563-2.148,3.06-2.446,3.705-.287.622,8.411,13.951,9.812,18.643v.494c.015-.079.041-.172.064-.26.023.089.049.182.064.26Z" transform="translate(-886.504 -62.346)" fill="#7a5f56"/>
          <g id="Group_7237" data-name="Group 7237" transform="translate(16.595 27.946)">
            <path id="Path_11995" data-name="Path 11995" d="M920.063,93.221a7.459,7.459,0,0,1-12.87,0,26.269,26.269,0,0,1-4.929,3.724s.792,8.541,11.363,8.541,11.364-8.541,11.364-8.541A26.267,26.267,0,0,1,920.063,93.221Z" transform="translate(-902.265 -93.221)" fill="#fff"/>
            <path id="Path_11996" data-name="Path 11996" d="M921.741,93.221a6.744,6.744,0,0,1-11.214,0h-1.3a7.834,7.834,0,0,0,13.817,0Z" transform="translate(-904.77 -93.221)" fill="#eaeaea"/>
          </g>
          <path id="Path_12000" data-name="Path 12000" d="M886.216,138.523a59.189,59.189,0,0,0,0-8.294s2.867-6.736,3.355-8.623c.145-.321,2.352-5.972,1.576-7.743-1.009-2.307-3.283-10.867-5.171-10.6-1.381.2-2.688,2.57-4.286,6-1.311,2.81-3.416,11.088-3.416,11.088-.878,2.616-1.562,8.2-1.875,9.567-.2.863.113,2.326.505,4.615.463,2.7,1.054,5.087,2.606,6.329l3.094-.82C883.01,139.947,886.221,138.94,886.216,138.523Z" transform="translate(-876.337 -68.889)" fill="#ee602a"/>
          <path id="Path_12001" data-name="Path 12001" d="M928.38,100.552c.2-.228-2.089-1.464-5-2.768s-5.116-3.344-7.6-3.806c-1.559-.29-6.2,11.041-6.728,11.2-.041.012.029.063,0,0-.553-1.208-5.12-11.213-6.582-10.94-2.483.462-4.924,2.239-7.834,3.543s-5.2,2.54-5,2.768a67.282,67.282,0,0,1,4.2,10.8c.7,3.288,1.221,5.313.518,6.912s.5,10.965,1.406,15.273a11.663,11.663,0,0,1,.154,1.654,9.581,9.581,0,0,1-.127,1.33c-.247,1.326,26.69,1.326,26.443,0a9.629,9.629,0,0,1-.127-1.331,11.6,11.6,0,0,1,.155-1.653c.909-4.308,2.186-13.674,1.483-15.273s-.261-3.624.441-6.912A67.273,67.273,0,0,1,928.38,100.552Z" transform="translate(-881.122 -65.545)" fill="#ed813b"/>
          <rect id="Rectangle_2818" data-name="Rectangle 2818" width="26.714" height="3.213" transform="translate(14.532 67.637)" fill="#dd5126"/>
          <g id="Group_7238" data-name="Group 7238" transform="translate(27.632 39.636)">
            <rect id="Rectangle_2819" data-name="Rectangle 2819" width="0.602" height="32.352" transform="translate(0 0)" fill="#eaeaea"/>
          </g>
          <path id="Path_12003" data-name="Path 12003" d="M909.491,89.042c-1.35.33-3.438.891-5.4,6.045,0,0,4.414.794,4.891.941s.065.59.677,1.242c2.9,3.081,4.059,5.8,4.6,6.136a25.679,25.679,0,0,0-3.625-7.753c-1.311-1.393-2.2-4.171-1.322-5.818Z" transform="translate(-886.329 -63.77)" fill="#dd5126"/>
          <path id="Path_12004" data-name="Path 12004" d="M924.833,89.042c1.351.33,3.394.891,5.351,6.045,0,0-4.414.794-4.891.941s-.065.59-.677,1.242c-2.9,3.081-4.059,5.8-4.6,6.136a25.677,25.677,0,0,1,3.625-7.753c1.311-1.393,2.264-4.073,1.39-5.72Z" transform="translate(-892.06 -63.77)" fill="#dd5126"/>
          <path id="Path_12005" data-name="Path 12005" d="M919.934,77.681q-.194.187-.4.365a8.779,8.779,0,0,1-1.348.986,6.515,6.515,0,0,1-1.3.585,6.168,6.168,0,0,1-1.268.263,6.308,6.308,0,0,1-1.614-.047,6.109,6.109,0,0,1-1.274-.347,6.95,6.95,0,0,1-1.31-.692,9.827,9.827,0,0,1-1.366-1.114c-1.8-1.738-1.785-6.131-2.22-5.821-.993.667-1.63-1.32-1.754-2.5s.414-1.676.911-1.18.5-.056.641-.7c.045-.209.1-.415.16-.62.092-.313.2-.622.317-.926a11.3,11.3,0,0,1,.5-1.113,9.9,9.9,0,0,1,.721-1.18,8.23,8.23,0,0,1,.967-1.13,6.906,6.906,0,0,1,1.244-.961,6.486,6.486,0,0,1,1.552-.673,7.036,7.036,0,0,1,1.948-.257,6.647,6.647,0,0,1,1.885.27,6.465,6.465,0,0,1,1.54.68,6.975,6.975,0,0,1,1.235.964,8.274,8.274,0,0,1,.96,1.129,9.974,9.974,0,0,1,.714,1.178,11.4,11.4,0,0,1,.5,1.109c.117.3.223.61.314.921.06.2.113.405.157.611.138.647.145,1.2.641.7s1.035,0,.911,1.18-.761,3.166-1.755,2.5C921.719,71.55,921.734,75.942,919.934,77.681Z" transform="translate(-887.038 -53.538)" fill="#866a5e"/>
          <path id="Path_12006" data-name="Path 12006" d="M919.793,55.126a11.44,11.44,0,0,0-8.6-.62c-1.2.408-5.068,2.481-4.818,8.654a9.838,9.838,0,0,0,.388,2.49,1.877,1.877,0,0,1,.83,1.617h.763a8.56,8.56,0,0,1,.355-2.127c.266-.532,2.277-1.792,1.922-1.171s-.391.8.673.088,2.282-1.672,2.016-1.052,1.175-.373,1.845-.92c1.116-.914,1.574-.95,1.194-.321-.415.686,1.681-.968,2.833-1.145s.417,1.687,1.48,3.1.878,3.113,1.345,3.624h.607a3.337,3.337,0,0,1,.712-1.613c.629-.543,1.019-5.076.03-7.27A7.062,7.062,0,0,0,919.793,55.126Z" transform="translate(-887.146 -51.138)" fill="#534d46"/>
          <path id="Path_12007" data-name="Path 12007" d="M898.526,114.465c.009,1.04-.141,1.841.432,2.057a16.787,16.787,0,0,0,4.53,1.178c.96,0,4.211-1,4.852-1.76.283-.335.24-1.96-.2-2C907.248,113.859,898.522,114.025,898.526,114.465Z" transform="translate(-884.32 -72.726)" fill="#ee602a"/>
          <path id="Path_12008" data-name="Path 12008" d="M934.99,114.465c-.009,1.04.142,1.841-.432,2.057a16.788,16.788,0,0,1-4.53,1.178c-.96,0-4.212-1-4.852-1.76-.283-.335-.24-1.96.2-2C926.267,113.859,934.994,114.025,934.99,114.465Z" transform="translate(-893.852 -72.726)" fill="#ee602a"/>
          <g id="Group_7239" data-name="Group 7239" transform="translate(17.55)">
            <path id="Path_12009" data-name="Path 12009" d="M914.368,50.634c-8.883,0-9.978,7.471-9.978,11.093a13.868,13.868,0,0,0,3.407.906c2.19.34,6.571.792,6.571.792s4.38-.453,6.57-.792a13.865,13.865,0,0,0,3.407-.906C924.345,58.105,923.25,50.634,914.368,50.634Z" transform="translate(-903.985 -49.946)" fill="#fcc232"/>
            <path id="Path_12010" data-name="Path 12010" d="M920.062,68.938a29.827,29.827,0,0,1-11.846,0c-4.076-.867-4.46-1.292-4.46-.5s5.881,2.641,10.383,2.641c4.623,0,10.382-1.848,10.382-2.641S924.139,68.072,920.062,68.938Z" transform="translate(-903.757 -56.204)" fill="#f9b234"/>
            <path id="Path_12011" data-name="Path 12011" d="M911.677,51.434s3.773,6.226,3.976,11.471h2.677c.2-5.245,3.975-11.471,3.975-11.471a8.2,8.2,0,0,0-5.485-1.874A7.943,7.943,0,0,0,911.677,51.434Z" transform="translate(-906.608 -49.559)" fill="#f9b234"/>
          </g>
        </g>
      </g>
      <g id="Mask_Group_4" data-name="Mask Group 4" transform="translate(193.096 26.521)" clip-path="url(#clip-path-2)">
        <g id="Group_7247" data-name="Group 7247" transform="translate(2.3 1.656)">
          <path id="Path_12012" data-name="Path 12012" d="M781.17,415.49a29.666,29.666,0,0,0-.58,4.5,4.883,4.883,0,0,0,.467,3.677c1.033,1.65,2.379,5.417,3.719,6.728l2.439-.934s.5-2.229-1.564-8.048a22.665,22.665,0,0,1,.8-4.75Z" transform="translate(-780.025 -377.406)" fill="#c69a81"/>
          <path id="Path_12013" data-name="Path 12013" d="M846.215,415.49a29.683,29.683,0,0,1,.58,4.5,4.883,4.883,0,0,1-.467,3.677c-1.032,1.65-2.859,5.9-4.2,7.209l-2.439-.934s-.02-2.709,2.045-8.529a22.677,22.677,0,0,0-.8-4.75Z" transform="translate(-810.788 -377.406)" fill="#c69a81"/>
          <path id="Path_12016" data-name="Path 12016" d="M809.3,393.034c1.053-3.526,8.07-14.97,7.855-15.437-.224-.485.683-.037-2.029-1.516a4.815,4.815,0,0,1-2.377-4.874h-6.994a5.587,5.587,0,0,1-2.086,5.035c-2.416,1.926-1.614,2.3-1.838,2.784-.216.467,6.319,10.482,7.373,14.008v.371c.012-.059.03-.129.048-.2.017.067.037.137.048.2Z" transform="translate(-791.132 -354.418)" fill="#c69a81"/>
          <path id="Path_12017" data-name="Path 12017" d="M813.308,396.284c.2-1.206,3.232-12.542,3.232-12.938s-7.777-2.722-7.786-2.43c-.068,2.156-2.759,2.735-5.173,3.106a6.634,6.634,0,0,1-1.025,0c-2.414-.371-5.1-.949-5.173-3.106-.009-.292-7.893,2.038-7.893,2.434s3.139,11.728,3.34,12.934a54.778,54.778,0,0,1,.2,15s.778-.287,4.833.035c0,.055,15.185.2,15.185.2A57.346,57.346,0,0,1,813.308,396.284Z" transform="translate(-784.73 -359.445)" fill="#f9f9f9"/>
          <path id="Path_12018" data-name="Path 12018" d="M817.107,381.008l-1.127-.242c-.538,1.391-2.007,3.1-5.6,3.139-3.595-.038-5.057-1.748-5.594-3.139l-1.213.258c.546,1.412,2.278,3.993,6.686,4.078v.008c.042,0,.08,0,.121,0s.079,0,.121,0V385.1C814.908,385.018,816.561,382.421,817.107,381.008Z" transform="translate(-792.039 -359.38)" fill="#edefef"/>
          <path id="Path_12019" data-name="Path 12019" d="M784.084,386.046c-1,.282-2.019,3-2.27,5.922s-2.846,7.708-2.083,8.649,6.34,2.4,6.943,2.227.966-12,.024-13.685S785.451,385.662,784.084,386.046Z" transform="translate(-779.591 -362.095)" fill="#edefef"/>
          <path id="Path_12020" data-name="Path 12020" d="M797.11,382.337c.171,2.093,1.469,15.779,1.645,15.714s2.686,0,2.686-.262-1.558-16.074-2.1-16.116C798.975,381.645,797.08,381.979,797.11,382.337Z" transform="translate(-788.685 -359.851)" fill="#2e5566"/>
          <path id="Path_12021" data-name="Path 12021" d="M833.535,382.337c-.172,2.093-1.47,15.779-1.645,15.714s-2.686,0-2.686-.262,1.558-16.074,2.1-16.116C831.669,381.645,833.564,381.979,833.535,382.337Z" transform="translate(-805.345 -359.851)" fill="#2e5566"/>
          <path id="Path_12022" data-name="Path 12022" d="M813.976,361.588q-.149.144-.3.28a6.716,6.716,0,0,1-1.033.755,5,5,0,0,1-.995.449,4.741,4.741,0,0,1-.971.2,4.837,4.837,0,0,1-1.236-.036,4.7,4.7,0,0,1-.976-.266,5.322,5.322,0,0,1-1-.53,7.517,7.517,0,0,1-1.046-.854c-1.38-1.332-1.368-4.7-1.7-4.459-.761.511-1.249-1.011-1.344-1.914s.317-1.284.7-.9.385-.043.492-.539c.035-.16.076-.318.123-.475q.106-.36.243-.71a8.7,8.7,0,0,1,.386-.852,7.594,7.594,0,0,1,.552-.9,6.32,6.32,0,0,1,.741-.866,5.316,5.316,0,0,1,.953-.736,4.943,4.943,0,0,1,1.189-.516,5.377,5.377,0,0,1,1.492-.2,5.113,5.113,0,0,1,1.443.207,4.946,4.946,0,0,1,1.18.521,5.324,5.324,0,0,1,.946.738,6.3,6.3,0,0,1,.736.865,7.652,7.652,0,0,1,.547.9,8.734,8.734,0,0,1,.383.849c.09.232.171.467.24.706.045.154.087.31.12.467.106.5.111.919.492.539s.793,0,.7.9-.583,2.426-1.344,1.914C815.343,356.891,815.355,360.257,813.976,361.588Z" transform="translate(-791.926 -342.64)" fill="#d1a385"/>
          <path id="Path_12023" data-name="Path 12023" d="M816.233,347.931a3.722,3.722,0,0,1-.181-3.095,1.275,1.275,0,0,0-1.951-1.083,1.908,1.908,0,0,1,.016-.194,1.407,1.407,0,0,0-.512-1.511,1.375,1.375,0,0,0-1.692.178l-.077-.049a4.439,4.439,0,0,1-3.5-.972,1.275,1.275,0,0,0-1.238.972l-.078.049a1.355,1.355,0,0,0-2.2,1.334c.01.065.007.131.016.194a2.412,2.412,0,0,0-2.132,4.178,1.275,1.275,0,0,0,.1,2.361.587.587,0,0,0,.082.076c.668.47.909.558.87,2.551a2.143,2.143,0,0,0,.174,1.006h.587c.187.038.153.275.148-.638a20.421,20.421,0,0,1,.31-4.324,3.085,3.085,0,0,1,.819-1.627,3.552,3.552,0,0,1,3.641-1.173h0c1.75-.179,2.744.009,3.71,1.173a3.085,3.085,0,0,1,.82,1.627,20.425,20.425,0,0,1,.309,4.324c-.005.913-.038.676.148.638h.588a2.146,2.146,0,0,0,.174-1.006c-.039-1.992.2-2.081.87-2.551a.539.539,0,0,0,.082-.076,1.275,1.275,0,0,0,.1-2.361Z" transform="translate(-791.201 -338.845)" fill="#393a3f"/>
          <path id="Path_12024" data-name="Path 12024" d="M843.06,386.037c1,.281,2.025,3,2.276,5.922s2.854,7.708,2.088,8.648-6.359,2.4-6.963,2.228-.967-12-.022-13.685S841.689,385.652,843.06,386.037Z" transform="translate(-810.877 -362.09)" fill="#edefef"/>
          <path id="Path_12025" data-name="Path 12025" d="M816.945,424.815a7.27,7.27,0,0,1-.095-1,5.948,5.948,0,0,0-.225-1.405c-.721-3.807.127-14.44-.4-15.641-.07-.16-.116-.5-.629-.5H798.569c-.512,0-.558.34-.628.5-.528,1.2.188,11.6-.287,15.845a4.516,4.516,0,0,0-.263,1.2,7.12,7.12,0,0,1-.095,1C797.11,425.811,817.13,425.811,816.945,424.815Z" transform="translate(-788.781 -372.62)" fill="#3e5e6d"/>
          <g id="Group_7242" data-name="Group 7242" transform="translate(10.088 0)">
            <path id="Path_12030" data-name="Path 12030" d="M809.093,337.424c-7,0-7.86,5.886-7.86,8.739a10.9,10.9,0,0,0,2.684.714c1.725.267,5.176.624,5.176.624s3.45-.357,5.176-.624a10.9,10.9,0,0,0,2.683-.714C816.952,343.31,816.09,337.424,809.093,337.424Z" transform="translate(-800.914 -336.882)" fill="#fcc232"/>
            <path id="Path_12031" data-name="Path 12031" d="M813.414,356.376a23.521,23.521,0,0,1-9.332,0c-3.211-.683-3.513-1.019-3.513-.394s4.633,2.081,8.179,2.081c3.642,0,8.179-1.457,8.179-2.081S816.625,355.693,813.414,356.376Z" transform="translate(-800.569 -346.344)" fill="#f9b234"/>
            <path id="Path_12032" data-name="Path 12032" d="M808.873,337.774s2.971,4.9,3.131,9.036h2.109c.16-4.131,3.131-9.036,3.131-9.036a6.457,6.457,0,0,0-4.321-1.476A6.254,6.254,0,0,0,808.873,337.774Z" transform="translate(-804.88 -336.297)" fill="#f9b234"/>
          </g>
        </g>
      </g>
      <g id="Group_7248" data-name="Group 7248" transform="translate(28.909 34.158)">
        <path id="Path_12059" data-name="Path 12059" d="M890.315,426.774c-.324,2.245-.342,3.844-.472,5.058-.082.766.391,1.747,1.855,3.136,1.285,1.219,4.124,3.706,6.021,4.365l1.352-2.435s-2.426-3.142-4.246-5.232a22.8,22.8,0,0,1,.831-3.9Z" transform="translate(-888.116 -389.806)" fill="#eaccb0"/>
        <path id="Path_12060" data-name="Path 12060" d="M942.414,426.774c.324,2.245.343,3.844.472,5.058.082.766-.391,1.747-1.855,3.136-1.284,1.219-4.081,3.968-5.978,4.626L933.7,437.16s2.382-3.4,4.2-5.494a22.808,22.808,0,0,0-.831-3.9Z" transform="translate(-908.368 -389.806)" fill="#eaccb0"/>
        <path id="Path_12061" data-name="Path 12061" d="M920.829,385.865c-.608-.9-.332-5-.376-8.207l-6.748,1.083-6.748-1.083c-.045,3.206.231,7.309-.376,8.207-.567.838,6.173,2.093,7.073,2.256v.018l.05-.009.05.009v-.018C914.656,387.957,921.4,386.7,920.829,385.865Z" transform="translate(-895.832 -367.132)" fill="#866a5e"/>
        <path id="Path_12066" data-name="Path 12066" d="M892.437,399.735c-1.014.306-2.308,3.542-3.144,7.176-.715,3.108-2.786,8.715-2.643,8.924.733,1.071,6.853,2.536,7.464,2.353s.953-13.137-.006-14.981S893.823,399.318,892.437,399.735Z" transform="translate(-886.643 -377.298)"/>
        <path id="Path_12067" data-name="Path 12067" d="M940.772,399.735c1.014.306,2.309,3.542,3.145,7.176.715,3.108,2.786,8.715,2.643,8.924-.733,1.071-6.854,2.536-7.465,2.353s-.953-13.137.006-14.981S939.387,399.318,940.772,399.735Z" transform="translate(-910.584 -377.298)"/>
        <path id="Path_12068" data-name="Path 12068" d="M913.741,410.084c1-3.676,7.653-15.612,7.448-16.1-.213-.506.648-.038-1.924-1.581s-2.231-4.3-2.254-5.084h-6.632c-.023.784.319,3.541-2.253,5.084s-1.567,1.695-1.779,2.2c-.2.487,6.305,11.8,7.3,15.48v.388c.011-.061.03-.134.046-.2.016.07.035.143.046.2Z" transform="translate(-895.729 -371.592)" fill="#eaccb0"/>
        <path id="Path_12069" data-name="Path 12069" d="M917.819,376.969q-.156.151-.319.294a7.057,7.057,0,0,1-1.084.793,5.22,5.22,0,0,1-1.044.47,4.946,4.946,0,0,1-1.019.212,5.059,5.059,0,0,1-1.3-.038,4.894,4.894,0,0,1-1.024-.279,5.579,5.579,0,0,1-1.054-.556,7.9,7.9,0,0,1-1.1-.9c-1.448-1.4-1.435-4.93-1.785-4.68-.8.537-1.311-1.061-1.41-2.01s.333-1.348.732-.948.4-.045.516-.566c.036-.168.08-.334.129-.5q.111-.378.254-.745a9.129,9.129,0,0,1,.406-.895,7.913,7.913,0,0,1,.579-.949,6.555,6.555,0,0,1,.777-.908,5.551,5.551,0,0,1,1-.772,5.2,5.2,0,0,1,1.247-.542,5.666,5.666,0,0,1,1.567-.207,5.371,5.371,0,0,1,1.515.217,5.218,5.218,0,0,1,1.239.547,5.6,5.6,0,0,1,.993.775,6.609,6.609,0,0,1,.772.908,8.023,8.023,0,0,1,.575.947,9.3,9.3,0,0,1,.4.891c.094.243.179.49.252.741.048.162.091.326.126.491.111.521.116.965.516.566s.832,0,.732.948-.611,2.546-1.41,2.01C919.254,372.039,919.267,375.571,917.819,376.969Z" transform="translate(-895.889 -360.48)" fill="#f2d4b6"/>
        <path id="Path_12070" data-name="Path 12070" d="M918.522,424.391s.1-3.325.167-3.9a25.787,25.787,0,0,1,1.4-6.525c.672-2.246.558-6.076.8-9.467a57.871,57.871,0,0,1,.894-6.32c0-.444-6.855-1.991-6.536-1.917,2.5.585-2.762,8.862-5.107,11.958-2.375-3.039-7.435-11.417-5.12-11.958.318-.074-6.537,1.473-6.537,1.917a57.791,57.791,0,0,1,.895,6.32c.237,3.391.123,7.221.795,9.467,1.342,4.486,1.418,4.931,1.418,6.39,0,1.245.167,4,.167,4Z" transform="translate(-892.109 -375.718)" fill="#232626"/>
        <path id="Path_12071" data-name="Path 12071" d="M916.78,362.295c-1.324.15-2.619.629-4.8,2.365-1.728,1.375-3.269,2.746-3.965,2.93-.193.051-.2-.686-.859-.55-.183.038-.42-3.4.958-5.694a6.573,6.573,0,0,1,7.481-2.977c1.731.518,1.831,1.274,2.609,1.478,1.619.424,2.623,2.972,2.623,5.444s-.4,1.948-.675,2.123-.617-2.179-1.941-3.277S916.78,362.295,916.78,362.295Z" transform="translate(-896.047 -358.104)" fill="#866a5e"/>
        <path id="Path_12073" data-name="Path 12073" d="M921.189,399.719c-.443-.293-.477-.9-1.1-1.9a4.737,4.737,0,0,0-1.42-1.259c-.544-.41-.858-.3-.858-.3s.327.111.432.663c.038.2.337.812-.9,2.376-1.077,1.36-4.4,6.607-4.664,8.583-.266-1.976-3.588-7.223-4.665-8.583-1.239-1.564-.94-2.178-.9-2.376.1-.552.432-.663.432-.663s-.314-.108-.858.3a4.735,4.735,0,0,0-1.42,1.259c-.626,1-.66,1.609-1.1,1.9s3.451.522,3.451.522l-2.453,1.648a43.228,43.228,0,0,0,4.46,3.615,13.237,13.237,0,0,1,3.056,3.226,12.963,12.963,0,0,1,2.95-3.091,43.393,43.393,0,0,0,4.566-3.75l-2.453-1.648S921.631,400.012,921.189,399.719Z" transform="translate(-894.713 -375.712)"/>
        <path id="Path_12074" data-name="Path 12074" d="M904.564,397.215c.283,2.78.425,9.855.425,9.855l1.94.01s-.128-8.912-.516-10.293Z" transform="translate(-894.916 -375.963)" fill="#f4f4f4"/>
        <path id="Path_12075" data-name="Path 12075" d="M933.678,397.215c-.283,2.78-.425,9.855-.425,9.855l-1.939.01s.128-8.912.516-10.293Z" transform="translate(-907.265 -375.963)" fill="#f4f4f4"/>
        <path id="Path_12076" data-name="Path 12076" d="M905.106,433.669h16.026a45.927,45.927,0,0,1-.083-5.925c.16-4.975.346-11.582.144-11.852l-8.074.045-8.075-.045c-.2.269-.04,6.605.144,11.852A45.448,45.448,0,0,1,905.106,433.669Z" transform="translate(-895.095 -384.782)" fill="#f4f4f4"/>
        <path id="Path_12077" data-name="Path 12077" d="M921.232,445.737H904.059a5.351,5.351,0,0,0,0,2.383h17.173A5.342,5.342,0,0,0,921.232,445.737Z" transform="translate(-894.624 -398.56)" fill="#eaeaea"/>
      </g>
    </g>
  </g>
</svg>
