<svg xmlns="http://www.w3.org/2000/svg" xmlns:xlink="http://www.w3.org/1999/xlink" width="156.5" height="71.343" viewBox="0 0 156.5 71.343">
  <defs>
    <filter id="Union_154" x="0" y="0" width="64.751" height="71.343" filterUnits="userSpaceOnUse">
      <feOffset dy="2" input="SourceAlpha"/>
      <feGaussianBlur stdDeviation="2" result="blur"/>
      <feFlood flood-color="#606060" flood-opacity="0.071"/>
      <feComposite operator="in" in2="blur"/>
      <feComposite in="SourceGraphic"/>
    </filter>
    <filter id="Path_1289" x="66.436" y="21.299" width="90.064" height="26.253" filterUnits="userSpaceOnUse">
      <feOffset dy="1" input="SourceAlpha"/>
      <feGaussianBlur stdDeviation="1.5" result="blur-2"/>
      <feFlood flood-color="#606060" flood-opacity="0.09"/>
      <feComposite operator="in" in2="blur-2"/>
      <feComposite in="SourceGraphic"/>
    </filter>
  </defs>
  <g id="Group_6031" data-name="Group 6031" transform="translate(-119.12 -65.763)">
    <g id="Group_6057" data-name="Group 6057">
      <g transform="matrix(1, 0, 0, 1, 119.12, 65.76)" filter="url(#Union_154)">
        <path id="Union_154-2" data-name="Union 154" d="M27.531,59.343V58.8a3.212,3.212,0,0,1-1.252.258,3.152,3.152,0,0,1-.919-.138v.427H24.273v-.97A8.982,8.982,0,0,1,21.242,53L8.8,45.839a1.078,1.078,0,0,1-.3-.257A5.2,5.2,0,0,1,.407,43.612a5.182,5.182,0,0,1,3.764-7.093V22.335a5.326,5.326,0,1,1,4.677-9.208,1.066,1.066,0,0,1,.243-.191L21.1,6.019a5.406,5.406,0,0,1-.045-.695,5.337,5.337,0,0,1,10.675,0,5.367,5.367,0,0,1-.058.787l.007,0,12.2,7.027a5.33,5.33,0,1,1,4.641,9.2c.009.1.013.2.013.3V36.772a5.326,5.326,0,1,1-4.777,9.092L31.539,52.911a1.1,1.1,0,0,1-.227.1,9.472,9.472,0,0,1-2.7,5.105v1.228Zm1.914-30.371a3.206,3.206,0,0,1-2.075,3v7.951c2.475.9,4.338,4.8,4.338,9.469q0,.476-.025.941l10.831-6.243L42.5,44.05a5.333,5.333,0,0,1-.125-3.821l-8.595-5.117q-.3.355-.626.68A9.772,9.772,0,0,1,31.7,36.969a9.793,9.793,0,0,1-3.711,1.494h0V36.187a7.515,7.515,0,1,0-3.521,0v2.277a9.783,9.783,0,0,1-2.033-.6,9.776,9.776,0,0,1-3.106-2.068q-.268-.264-.515-.549L10.206,40.26a5.2,5.2,0,0,1-.234,3.351q-.069.163-.149.32l.065.034,10.986,6.326q-.024-.446-.024-.9c0-4.68,1.869-8.583,4.35-9.474V32.007a3.207,3.207,0,1,1,4.244-3.036ZM44.236,42.044a3.169,3.169,0,1,0,3.169-3.162A3.169,3.169,0,0,0,44.236,42.044ZM2.1,41.661a3.082,3.082,0,1,0,3.082-3.073A3.081,3.081,0,0,0,2.1,41.661ZM35.364,25.51a9.572,9.572,0,0,1-.121,7.215q-.126.294-.272.58l8.514,5.068c.05-.055.1-.108.155-.161a5.338,5.338,0,0,1,2.734-1.459V22.644c0-.1,0-.19.012-.282A5.329,5.329,0,0,1,43.64,20.9c-.064-.065-.127-.13-.188-.2ZM9.112,20.9A5.34,5.34,0,0,1,6.34,22.368V36.546a5.207,5.207,0,0,1,2.879,1.786l8.369-4.878q-.191-.358-.349-.729a9.564,9.564,0,0,1-.067-7.35l-7.9-4.639C9.219,20.793,9.166,20.848,9.112,20.9ZM30.17,9.089a5.332,5.332,0,0,1-2.8,1.471v8.826a9.787,9.787,0,0,1,6.976,4.19l.011.016,8-4.752a5.334,5.334,0,0,1,.141-3.775c.026-.061.053-.121.081-.18L30.911,8.167A5.327,5.327,0,0,1,30.17,9.089Zm-19.994,5.72-.03.017q.057.117.108.239a5.336,5.336,0,0,1,.128,3.814l7.826,4.6a9.791,9.791,0,0,1,6.99-4.1V10.515a5.353,5.353,0,0,1-3.364-2.42ZM44.236,17.2a3.169,3.169,0,1,0,3.169-3.162A3.169,3.169,0,0,0,44.236,17.2ZM2.16,17.2a3.169,3.169,0,1,0,3.169-3.162A3.169,3.169,0,0,0,2.16,17.2ZM23.218,5.39a3.169,3.169,0,1,0,3.17-3.161A3.169,3.169,0,0,0,23.218,5.39Z" transform="translate(6 4)" fill="#28be7d"/>
      </g>
      <g id="Group_5915" data-name="Group 5915" transform="translate(190.056 90.562)">
        <g transform="matrix(1, 0, 0, 1, -70.94, -24.8)" filter="url(#Path_1289)">
          <path id="Path_1289-2" data-name="Path 1289" d="M72.417,17.253a9.624,9.624,0,0,1-3.326-.556,7.293,7.293,0,0,1-2.628-1.646,7.4,7.4,0,0,1-1.726-2.7,10.583,10.583,0,0,1-.621-3.723A10.583,10.583,0,0,1,64.736,4.9a7.4,7.4,0,0,1,1.726-2.7A7.293,7.293,0,0,1,69.091.556,9.624,9.624,0,0,1,72.417,0,10.057,10.057,0,0,1,75.8.556,7.869,7.869,0,0,1,78.544,2.2a7.51,7.51,0,0,1,1.845,2.7,9.874,9.874,0,0,1,.675,3.723,9.874,9.874,0,0,1-.675,3.723,7.51,7.51,0,0,1-1.845,2.7A7.873,7.873,0,0,1,75.8,16.7,10.057,10.057,0,0,1,72.417,17.253ZM69.164,12.28h0l.827.135a3.885,3.885,0,0,0,.672.39l.462.6a.457.457,0,0,0,.456.4h1.978a.454.454,0,0,0,.455-.392l.463-.606a3.96,3.96,0,0,0,.671-.39l.83-.134a.463.463,0,0,0,.169.032.451.451,0,0,0,.4-.233l.991-1.715a.465.465,0,0,0-.115-.589l-.364-.742a3.742,3.742,0,0,0,.022-.39,3.622,3.622,0,0,0-.022-.389l.365-.742a.467.467,0,0,0,.112-.592l-.986-1.706a.454.454,0,0,0-.4-.237.5.5,0,0,0-.172.032l-.827-.135a3.839,3.839,0,0,0-.672-.39l-.462-.6a.456.456,0,0,0-.456-.4H71.58a.454.454,0,0,0-.455.392l-.463.607a3.936,3.936,0,0,0-.671.39l-.83.134A.446.446,0,0,0,69,4.978a.463.463,0,0,0-.4.231l-.987,1.709a.462.462,0,0,0,.112.6l.364.742a3.39,3.39,0,0,0,0,.779l-.365.742a.467.467,0,0,0-.112.592l.986,1.706a.448.448,0,0,0,.4.237.5.5,0,0,0,.173-.032Zm-9.31,4.744h0l-10.5,0a1.862,1.862,0,0,1-1.818-.907,2.176,2.176,0,0,1-.107-1.463,4.617,4.617,0,0,1,.828-1.7l6.845-9.117a.245.245,0,0,0,.061-.247c-.033-.066-.12-.1-.246-.1H48.75a1.241,1.241,0,0,1-.9-.308,1.18,1.18,0,0,1-.315-.88V1.421a1.18,1.18,0,0,1,.315-.88,1.241,1.241,0,0,1,.9-.308h9.409a1.854,1.854,0,0,1,1.813.9,2.167,2.167,0,0,1,.1,1.46,4.6,4.6,0,0,1-.832,1.691l-6.832,9.13a.244.244,0,0,0-.061.247c.033.066.12.1.246.1H62.7l-2.848,3.258Zm-18.954,0H39.565a1.24,1.24,0,0,1-.9-.308,1.18,1.18,0,0,1-.316-.88V1.421a1.18,1.18,0,0,1,.316-.88,1.24,1.24,0,0,1,.9-.308H40.9a1.241,1.241,0,0,1,.9.308,1.18,1.18,0,0,1,.316.88V15.833a1.18,1.18,0,0,1-.316.88A1.241,1.241,0,0,1,40.9,17.021Zm-8.586,0H30.94a1.435,1.435,0,0,1-.874-.252,1.4,1.4,0,0,1-.487-.755l-.951-3.306H21.24l-.952,3.306a1.4,1.4,0,0,1-.487.755,1.435,1.435,0,0,1-.874.252H17.567a1.105,1.105,0,0,1-.935-.373,1.066,1.066,0,0,1-.083-.97l3.5-11.4a10.776,10.776,0,0,1,.8-2.019A4.591,4.591,0,0,1,21.871.936,3.527,3.527,0,0,1,23.2.218,6.078,6.078,0,0,1,24.94,0a6.193,6.193,0,0,1,1.745.216,3.561,3.561,0,0,1,1.344.716A4.473,4.473,0,0,1,29.051,2.25a10.137,10.137,0,0,1,.779,2.025l3.5,11.4a1.488,1.488,0,0,1,.074.43.852.852,0,0,1-.29.674A1.218,1.218,0,0,1,32.314,17.021ZM24.94,3.112a1.02,1.02,0,0,0-.809.31,2.962,2.962,0,0,0-.552,1.162L22.113,9.673h5.643L26.3,4.584a2.961,2.961,0,0,0-.552-1.162A1.02,1.02,0,0,0,24.94,3.112ZM8.034,17.021H6.7a1.241,1.241,0,0,1-.9-.308,1.18,1.18,0,0,1-.316-.88V3.5H1.216a1.24,1.24,0,0,1-.9-.308A1.18,1.18,0,0,1,0,2.312V1.421A1.18,1.18,0,0,1,.316.541a1.24,1.24,0,0,1,.9-.308h12.3a1.24,1.24,0,0,1,.9.308,1.18,1.18,0,0,1,.316.88v.891a1.18,1.18,0,0,1-.316.88,1.24,1.24,0,0,1-.9.308H9.25V15.833a1.18,1.18,0,0,1-.316.88A1.24,1.24,0,0,1,8.034,17.021Z" transform="translate(70.94 24.8)" fill="#555454"/>
        </g>
        <path id="Path_1290" data-name="Path 1290" d="M1.868,0A1.868,1.868,0,1,1,0,1.868,1.868,1.868,0,0,1,1.868,0Z" transform="translate(70.68 6.732)" fill="#5a5a5a"/>
      </g>
    </g>
  </g>
</svg>
