<svg xmlns="http://www.w3.org/2000/svg" xmlns:xlink="http://www.w3.org/1999/xlink" width="116.632" height="49.594" viewBox="0 0 116.632 49.594">
  <defs>
    <filter id="Union_233" x="0" y="0" width="41.108" height="45.401" filterUnits="userSpaceOnUse">
      <feOffset dy="1" input="SourceAlpha"/>
      <feGaussianBlur stdDeviation="1" result="blur"/>
      <feFlood flood-color="#606060" flood-opacity="0.161"/>
      <feComposite operator="in" in2="blur"/>
      <feComposite in="SourceGraphic"/>
    </filter>
    <filter id="Rectangle_2093" x="13.155" y="36.685" width="12.723" height="12.909" filterUnits="userSpaceOnUse">
      <feOffset dy="2" input="SourceAlpha"/>
      <feGaussianBlur stdDeviation="2" result="blur-2"/>
      <feFlood flood-color="#606060" flood-opacity="0.161"/>
      <feComposite operator="in" in2="blur-2"/>
      <feComposite in="SourceGraphic"/>
    </filter>
    <filter id="Rectangle_2094" x="15.323" y="36.685" width="12.723" height="12.909" filterUnits="userSpaceOnUse">
      <feOffset dy="2" input="SourceAlpha"/>
      <feGaussianBlur stdDeviation="2" result="blur-3"/>
      <feFlood flood-color="#606060" flood-opacity="0.161"/>
      <feComposite operator="in" in2="blur-3"/>
      <feComposite in="SourceGraphic"/>
    </filter>
    <filter id="Path_1289" x="42.583" y="11.178" width="74.049" height="22.845" filterUnits="userSpaceOnUse">
      <feOffset dy="1" input="SourceAlpha"/>
      <feGaussianBlur stdDeviation="1.5" result="blur-4"/>
      <feFlood flood-color="#606060" flood-opacity="0.161"/>
      <feComposite operator="in" in2="blur-4"/>
      <feComposite in="SourceGraphic"/>
    </filter>
  </defs>
  <g id="Group_5990" data-name="Group 5990" transform="translate(3 2)">
    <g id="Group_5983" data-name="Group 5983" transform="translate(0 0)">
      <g transform="matrix(1, 0, 0, 1, -3, -2)" filter="url(#Union_233)">
        <path id="Union_233-2" data-name="Union 233" d="M14.137,35.363,5.63,30.437A3.45,3.45,0,0,1,1.012,30.2a3.457,3.457,0,0,1,1.1-5.625,3.37,3.37,0,0,1,.666-.205V14.9a3.553,3.553,0,1,1,2.159-6.74,3.508,3.508,0,0,1,.955.6.705.705,0,0,1,.162-.128l7.994-4.616a3.587,3.587,0,0,1-.031-.463,3.553,3.553,0,1,1,7.106,0,3.637,3.637,0,0,1-.038.525l0,0,8.122,4.688a3.553,3.553,0,1,1,3.731,5.94,3.6,3.6,0,0,1-.641.2c.005.065.008.131.008.2v9.427a3.54,3.54,0,0,1,1.76.961,3.552,3.552,0,0,1-4.941,5.1l-8.135,4.7a.669.669,0,0,1-.15.066C20.3,37.733,19.006,39.4,17.49,39.4S14.671,37.731,14.137,35.363ZM19.6,19.33a2.139,2.139,0,0,1-1.381,2v5.3c1.648.6,2.887,3.2,2.887,6.319,0,.212-.005.421-.016.628l7.208-4.167-.01-.024a3.554,3.554,0,0,1-.083-2.55l-5.721-3.415c-.131.158-.271.31-.416.454a6.514,6.514,0,0,1-3.434,1.783h0V24.145a5,5,0,1,0-2.344,0v1.519a6.518,6.518,0,0,1-3.419-1.78c-.119-.118-.233-.239-.343-.366L6.792,26.863A3.465,3.465,0,0,1,6.637,29.1q-.043.1-.092.2l7.348,4.254c-.011-.2-.016-.4-.016-.6,0-3.123,1.244-5.728,2.9-6.322V21.356A2.139,2.139,0,1,1,19.6,19.33Zm9.844,8.723a2.109,2.109,0,1,0,2.109-2.11A2.111,2.111,0,0,0,29.441,28.053ZM1.4,27.8a2.051,2.051,0,1,0,2.051-2.05A2.053,2.053,0,0,0,1.4,27.8ZM23.536,17.021a6.4,6.4,0,0,1-.08,4.814c-.056.131-.116.26-.181.387L28.94,25.6c.033-.037.067-.072.1-.107a3.558,3.558,0,0,1,1.129-.761,3.492,3.492,0,0,1,.69-.212V15.108c0-.064,0-.127.008-.188a3.483,3.483,0,0,1-.7-.212,3.558,3.558,0,0,1-1.129-.761q-.063-.065-.124-.132ZM6.064,13.946a3.558,3.558,0,0,1-1.129.761,3.508,3.508,0,0,1-.715.217v9.46a3.319,3.319,0,0,1,.58.186,3.452,3.452,0,0,1,1.1.741,3.3,3.3,0,0,1,.239.264l5.57-3.254q-.127-.239-.233-.486a6.4,6.4,0,0,1-.044-4.9l-5.258-3.1C6.136,13.873,6.1,13.91,6.064,13.946ZM20.08,6.064a3.532,3.532,0,0,1-1.865.981v5.89A6.517,6.517,0,0,1,20,13.4a6.451,6.451,0,0,1,1.1.593,6.477,6.477,0,0,1,1.757,1.739.094.094,0,0,1,.007.01l5.325-3.172a3.554,3.554,0,0,1,.094-2.518c.017-.04.035-.081.053-.121L20.572,5.449A3.536,3.536,0,0,1,20.08,6.064ZM6.773,9.881l-.019.01c.025.053.049.106.072.16A3.569,3.569,0,0,1,6.91,12.6l5.209,3.066a6.51,6.51,0,0,1,4.651-2.733V7.015A3.561,3.561,0,0,1,14.533,5.4Zm22.668,1.6a2.109,2.109,0,1,0,2.109-2.11A2.112,2.112,0,0,0,29.441,11.479Zm-28,0a2.109,2.109,0,1,0,2.11-2.11A2.112,2.112,0,0,0,1.437,11.479ZM15.453,3.6a2.109,2.109,0,1,0,2.109-2.109A2.111,2.111,0,0,0,15.453,3.6Z" transform="translate(3 2)" fill="#fff"/>
      </g>
    </g>
    <g transform="matrix(1, 0, 0, 1, -3, -2)" filter="url(#Rectangle_2093)">
      <rect id="Rectangle_2093-2" data-name="Rectangle 2093" width="0.723" height="0.909" transform="translate(19.16 40.68)" fill="#fff"/>
    </g>
    <g transform="matrix(1, 0, 0, 1, -3, -2)" filter="url(#Rectangle_2094)">
      <rect id="Rectangle_2094-2" data-name="Rectangle 2094" width="0.723" height="0.909" transform="translate(21.32 40.68)" fill="#fff"/>
    </g>
    <g transform="matrix(1, 0, 0, 1, -3, -2)" filter="url(#Path_1289)">
      <path id="Path_1289-2" data-name="Path 1289" d="M58.11,13.845a7.723,7.723,0,0,1-2.669-.446,5.852,5.852,0,0,1-2.109-1.321A5.941,5.941,0,0,1,51.947,9.91a8.492,8.492,0,0,1-.5-2.988,8.492,8.492,0,0,1,.5-2.988,5.939,5.939,0,0,1,1.385-2.168A5.852,5.852,0,0,1,55.441.446,7.723,7.723,0,0,1,58.11,0a8.07,8.07,0,0,1,2.713.446,6.315,6.315,0,0,1,2.2,1.321,6.026,6.026,0,0,1,1.48,2.168,7.923,7.923,0,0,1,.541,2.988,7.923,7.923,0,0,1-.541,2.988,6.026,6.026,0,0,1-1.48,2.168,6.318,6.318,0,0,1-2.2,1.321A8.07,8.07,0,0,1,58.11,13.845ZM55.5,9.854h0l.664.109a3.117,3.117,0,0,0,.539.313l.371.483a.366.366,0,0,0,.366.318h1.587a.365.365,0,0,0,.365-.315l.371-.487a3.178,3.178,0,0,0,.538-.313l.666-.108a.372.372,0,0,0,.135.025.362.362,0,0,0,.319-.187l.795-1.377a.373.373,0,0,0-.093-.473l-.292-.6a3,3,0,0,0,.018-.313,2.906,2.906,0,0,0-.018-.313l.293-.6a.374.374,0,0,0,.09-.475l-.791-1.369a.364.364,0,0,0-.32-.19.4.4,0,0,0-.138.025L60.3,3.911a3.08,3.08,0,0,0-.539-.313l-.371-.483a.366.366,0,0,0-.366-.317H57.439a.364.364,0,0,0-.365.315L56.7,3.6a3.158,3.158,0,0,0-.538.313l-.666.107a.358.358,0,0,0-.13-.024.371.371,0,0,0-.325.186l-.792,1.371a.371.371,0,0,0,.09.478l.292.6a2.721,2.721,0,0,0,0,.625l-.293.6a.375.375,0,0,0-.09.475l.791,1.369a.36.36,0,0,0,.319.19.4.4,0,0,0,.139-.025Zm-7.47,3.807h0l-8.423,0a1.494,1.494,0,0,1-1.459-.727,1.746,1.746,0,0,1-.086-1.174,3.705,3.705,0,0,1,.665-1.363l5.493-7.316a.2.2,0,0,0,.049-.2c-.026-.053-.1-.082-.2-.082H39.119a1,1,0,0,1-.722-.247.947.947,0,0,1-.253-.706v-.7A.947.947,0,0,1,38.4.434a1,1,0,0,1,.722-.247h7.55a1.487,1.487,0,0,1,1.455.725,1.739,1.739,0,0,1,.082,1.172,3.692,3.692,0,0,1-.667,1.357l-5.482,7.327a.2.2,0,0,0-.049.2c.026.053.1.082.2.082h8.111L48.03,13.661Zm-15.21,0H31.749a1,1,0,0,1-.722-.247.947.947,0,0,1-.253-.706V1.14a.947.947,0,0,1,.253-.706,1,1,0,0,1,.722-.247H32.82a1,1,0,0,1,.722.247.947.947,0,0,1,.253.706V12.7a.947.947,0,0,1-.253.706A1,1,0,0,1,32.82,13.658Zm-6.89,0h-1.1a1.151,1.151,0,0,1-.7-.2,1.124,1.124,0,0,1-.391-.606L22.972,10.2H17.044l-.764,2.653a1.124,1.124,0,0,1-.391.606,1.151,1.151,0,0,1-.7.2H14.1a.887.887,0,0,1-.75-.3.856.856,0,0,1-.066-.778l2.81-9.15a8.647,8.647,0,0,1,.643-1.62A3.684,3.684,0,0,1,17.55.751,2.83,2.83,0,0,1,18.619.175,4.878,4.878,0,0,1,20.013,0a4.969,4.969,0,0,1,1.4.173,2.858,2.858,0,0,1,1.078.574,3.589,3.589,0,0,1,.82,1.058,8.134,8.134,0,0,1,.625,1.625l2.81,9.15a1.194,1.194,0,0,1,.059.345.684.684,0,0,1-.233.541A.977.977,0,0,1,25.93,13.658ZM20.013,2.5a.818.818,0,0,0-.65.249,2.377,2.377,0,0,0-.443.933L17.744,7.762h4.528L21.105,3.679a2.376,2.376,0,0,0-.443-.933A.818.818,0,0,0,20.013,2.5ZM6.447,13.658H5.376a1,1,0,0,1-.722-.247A.947.947,0,0,1,4.4,12.7v-9.9H.976a1,1,0,0,1-.722-.247A.947.947,0,0,1,0,1.855V1.14A.947.947,0,0,1,.253.434,1,1,0,0,1,.976.187h9.872a1,1,0,0,1,.722.247.947.947,0,0,1,.253.706v.715a.947.947,0,0,1-.253.706,1,1,0,0,1-.722.247H7.423v9.9a.947.947,0,0,1-.253.706A1,1,0,0,1,6.447,13.658Z" transform="translate(47.08 14.68)" fill="#fff"/>
    </g>
    <path id="Path_1290" data-name="Path 1290" d="M1.5,0A1.5,1.5,0,1,1,0,1.5,1.5,1.5,0,0,1,1.5,0Z" transform="translate(100.8 18.08)" fill="#fff"/>
  </g>
</svg>
