<svg xmlns="http://www.w3.org/2000/svg" xmlns:xlink="http://www.w3.org/1999/xlink" width="121.39" height="83.039" viewBox="0 0 121.39 83.039">
  <defs>
    <clipPath id="clip-path">
      <ellipse id="Ellipse_874" data-name="Ellipse 874" cx="13.629" cy="13.628" rx="13.629" ry="13.628" fill="none"/>
    </clipPath>
  </defs>
  <g id="Group_6201" data-name="Group 6201" transform="translate(-733.5 -134.975)">
    <g id="Group_6198" data-name="Group 6198" transform="translate(733.5 134.975)">
      <g id="Group_6092" data-name="Group 6092" transform="translate(0)">
        <g id="Group_6087" data-name="Group 6087" transform="translate(10.389)" opacity="0.41">
          <g id="Group_6086" data-name="Group 6086">
            <path id="Path_10979" data-name="Path 10979" d="M276.7,151.374a34.593,34.593,0,0,0-15.755-30.825,7.326,7.326,0,0,1-3.282-5.341c-.013-.118-.027-.236-.042-.355a26.35,26.35,0,0,0-29.685-22.637c-13.756,1.872-23.658,9.141-22.2,23.139.007.066.015.162.023.283a6.685,6.685,0,0,1-6.549,7.113q-1.2.028-2.413.154a29.92,29.92,0,0,0-17.022,51.817h85.545C271.821,168.5,276.315,159.866,276.7,151.374Z" transform="translate(-170.058 -91.975)" fill="#2bcf85" opacity="0.37"/>
          </g>
        </g>
        <path id="Path_10980" data-name="Path 10980" d="M197.786,118.273a3.537,3.537,0,1,1-3.537-3.537A3.536,3.536,0,0,1,197.786,118.273Z" transform="translate(-165.983 -98.934)" fill="#93e6c1" opacity="0.31"/>
        <circle id="Ellipse_870" data-name="Ellipse 870" cx="3.106" cy="3.106" r="3.106" transform="translate(101.601 2.753)" fill="#93e6c1" opacity="0.31"/>
        <path id="Path_10981" data-name="Path 10981" d="M328.08,143.087a2.114,2.114,0,1,1-2.114-2.113A2.114,2.114,0,0,1,328.08,143.087Z" transform="translate(-206.69 -106.956)" fill="#93e6c1" opacity="0.31"/>
        <path id="Path_10982" data-name="Path 10982" d="M159.32,182.072a2.114,2.114,0,1,1-2.113-2.114A2.113,2.113,0,0,1,159.32,182.072Z" transform="translate(-155.093 -118.875)" fill="#93e6c1" opacity="0.31"/>
      </g>
      <g id="Group_6106" data-name="Group 6106" transform="translate(21.302 25.501)">
        <g id="Group_6104" data-name="Group 6104">
          <g id="Group_6097" data-name="Group 6097">
            <g id="Group_6093" data-name="Group 6093" transform="translate(9.235)">
              <path id="Path_10984" data-name="Path 10984" d="M269.712,177.549H199.34V130.4a1.428,1.428,0,0,1,1.428-1.428h67.515a1.428,1.428,0,0,1,1.429,1.428Z" transform="translate(-199.158 -128.786)" fill="#ecf1f7"/>
              <path id="Path_10985" data-name="Path 10985" d="M269.814,177.65H199.078V130.317a1.612,1.612,0,0,1,1.61-1.611H268.2a1.613,1.613,0,0,1,1.611,1.611Zm-70.372-.364H269.45v-46.97a1.248,1.248,0,0,0-1.247-1.247H200.688a1.248,1.248,0,0,0-1.246,1.247Z" transform="translate(-199.078 -128.706)" fill="#243762"/>
            </g>
            <g id="Group_6094" data-name="Group 6094" transform="translate(39.904 45.894)">
              <rect id="Rectangle_2192" data-name="Rectangle 2192" width="9.034" height="0.723" transform="translate(0.182 0.182)" fill="#ecf1f7"/>
              <path id="Path_10986" data-name="Path 10986" d="M252.651,195.9h-9.4v-1.087h9.4Zm-9.034-.365h8.671v-.358h-8.671Z" transform="translate(-243.253 -194.812)" fill="#243762"/>
            </g>
            <g id="Group_6095" data-name="Group 6095" transform="translate(43.871 1.487)">
              <path id="Path_10987" data-name="Path 10987" d="M250.329,131.631a.55.55,0,1,1-.549-.521A.536.536,0,0,1,250.329,131.631Z" transform="translate(-249.048 -130.928)" fill="#ecf1f7"/>
              <path id="Path_10988" data-name="Path 10988" d="M249.7,132.255a.7.7,0,1,1,.732-.7A.719.719,0,0,1,249.7,132.255Zm0-1.043a.341.341,0,1,0,.367.339A.354.354,0,0,0,249.7,131.212Z" transform="translate(-248.968 -130.848)" fill="#243762"/>
            </g>
            <g id="Group_6096" data-name="Group 6096" transform="translate(0 53.908)">
              <path id="Path_10989" data-name="Path 10989" d="M273.1,209.819H187.715c-.926,0-1.677-.5-1.677-1.121v-1.766c0-.175.212-.316.473-.316h87.866c.261,0,.473.141.473.316v1.717C274.85,209.3,274.066,209.819,273.1,209.819Z" transform="translate(-185.856 -206.435)" fill="#243762"/>
              <path id="Path_10990" data-name="Path 10990" d="M273.019,209.921H187.635c-1.043,0-1.859-.572-1.859-1.3v-1.766c0-.28.287-.5.655-.5H274.3c.367,0,.655.218.655.5v1.717C274.952,209.327,274.1,209.921,273.019,209.921Zm-86.588-3.2c-.18,0-.291.087-.291.134v1.766c0,.509.685.939,1.5.939h85.384c.85,0,1.569-.452,1.569-.987v-1.717c0-.047-.11-.134-.291-.134Z" transform="translate(-185.776 -206.355)" fill="#243762"/>
            </g>
          </g>
          <g id="Group_6101" data-name="Group 6101" transform="translate(12.354 3.865)">
            <g id="Group_6100" data-name="Group 6100">
              <g id="Group_6098" data-name="Group 6098">
                <rect id="Rectangle_2193" data-name="Rectangle 2193" width="64.151" height="41.076" rx="2.252" transform="translate(0.174 0.174)" fill="#fff"/>
                <path id="Path_10991" data-name="Path 10991" d="M266.331,175.7H205.307a1.74,1.74,0,0,1-1.737-1.738V136.01a1.739,1.739,0,0,1,1.737-1.737h61.024a1.739,1.739,0,0,1,1.737,1.737v37.949A1.739,1.739,0,0,1,266.331,175.7ZM205.307,134.62a1.391,1.391,0,0,0-1.39,1.39v37.949a1.392,1.392,0,0,0,1.39,1.391h61.024a1.392,1.392,0,0,0,1.39-1.391V136.01a1.392,1.392,0,0,0-1.39-1.39Z" transform="translate(-203.57 -134.273)" fill="#243762"/>
              </g>
              <g id="Group_6099" data-name="Group 6099" transform="translate(0.383 0.41)">
                <path id="Path_10992" data-name="Path 10992" d="M267.779,137.378v-1.085a1.494,1.494,0,0,0-1.551-1.429H205.672a1.494,1.494,0,0,0-1.551,1.429v1.089Z" transform="translate(-204.121 -134.863)" fill="#2bcf85"/>
                <path id="Path_10993" data-name="Path 10993" d="M287.75,136.617a.361.361,0,1,1-.362-.362A.361.361,0,0,1,287.75,136.617Z" transform="translate(-229.469 -135.289)" fill="#fff"/>
                <circle id="Ellipse_871" data-name="Ellipse 871" cx="0.361" cy="0.361" r="0.361" transform="translate(59.003 0.967)" fill="#fff"/>
                <circle id="Ellipse_872" data-name="Ellipse 872" cx="0.361" cy="0.361" r="0.361" transform="translate(60.449 0.967)" fill="#fff"/>
              </g>
            </g>
          </g>
          <rect id="Rectangle_2194" data-name="Rectangle 2194" width="52.711" height="33.562" transform="translate(17.986 8.782)" fill="#def7ec" opacity="0.43"/>
          <g id="Group_6102" data-name="Group 6102" transform="translate(0.362 48.442)">
            <path id="Path_10994" data-name="Path 10994" d="M195.665,198.743l-9.233,5.426h0l88.066-.039-8.505-5.365Z" transform="translate(-186.339 -198.561)" fill="#ecf1f7"/>
            <path id="Path_10995" data-name="Path 10995" d="M186.44,204.271h-.049v-.183l-.092-.156,9.276-5.451h.05L266,198.5l9.082,5.728Zm9.234-5.426-8.614,5.063,86.768-.038-7.928-5Z" transform="translate(-186.298 -198.481)" fill="#243762"/>
          </g>
          <g id="Group_6103" data-name="Group 6103" transform="translate(14.545 48.442)" opacity="0.26">
            <path id="Path_10996" data-name="Path 10996" d="M213.828,198.743l-6.139,3.608h0l58.548-.026-5.654-3.567Z" transform="translate(-207.021 -198.561)" fill="#ecf1f7"/>
            <path id="Path_10997" data-name="Path 10997" d="M206.726,202.453l6.759-3.972,46.857.015,6.231,3.93Zm6.857-3.608-5.519,3.244,57.25-.025-5.078-3.2Z" transform="translate(-206.726 -198.481)" fill="#243762"/>
          </g>
        </g>
        <path id="Path_11001" data-name="Path 11001" d="M274.111,138.6H224.96a.191.191,0,0,1,0-.381h49.151a.191.191,0,1,1,0,.381Z" transform="translate(-197.698 -131.614)" fill="#243762"/>
      </g>
      <path id="Path_11006" data-name="Path 11006" d="M278.294,211.326H177.24a.291.291,0,0,1,0-.582H278.294a.291.291,0,0,1,0,.582Z" transform="translate(-161.775 -128.288)" fill="#243762"/>
    </g>
    <g id="Group_6165" data-name="Group 6165" transform="translate(785.872 171.077)">
      <g id="Group_6164" data-name="Group 6164" transform="translate(0 0)">
        <g id="Group_6163" data-name="Group 6163" clip-path="url(#clip-path)">
          <path id="Path_11080" data-name="Path 11080" d="M248.747,174.277a5.267,5.267,0,1,1-5.267-5.266A5.267,5.267,0,0,1,248.747,174.277Zm2.681,22.053v-9.2A6.332,6.332,0,0,0,245.1,180.8h-3.23a6.332,6.332,0,0,0-6.333,6.333v9.2a1.755,1.755,0,0,0,1.755,1.755h12.385A1.755,1.755,0,0,0,251.428,196.33Z" transform="translate(-229.852 -163.76)" fill="#364c68" opacity="0.39"/>
        </g>
      </g>
    </g>
    <g id="Path_11178" data-name="Path 11178" transform="translate(802.99 187.823)" fill="#a8b7bf">
      <path d="M 5.781098365783691 11.06198120117188 C 2.869088411331177 11.06198120117188 0.4999983608722687 8.692940711975098 0.4999983608722687 5.780991077423096 C 0.4999983608722687 2.869040966033936 2.869088411331177 0.500001072883606 5.781098365783691 0.500001072883606 C 8.693108558654785 0.500001072883606 11.06219863891602 2.869040966033936 11.06219863891602 5.780991077423096 C 11.06219863891602 8.692940711975098 8.693108558654785 11.06198120117188 5.781098365783691 11.06198120117188 Z" stroke="none"/>
      <path d="M 5.781098365783691 1.000000953674316 C 3.14478874206543 1.000000953674316 0.9999980926513672 3.144741058349609 0.9999980926513672 5.780991077423096 C 0.9999980926513672 8.417241096496582 3.14478874206543 10.56198120117188 5.781098365783691 10.56198120117188 C 8.417407989501953 10.56198120117188 10.56219863891602 8.417241096496582 10.56219863891602 5.780991077423096 C 10.56219863891602 3.144741058349609 8.417407989501953 1.000000953674316 5.781098365783691 1.000000953674316 M 5.781098365783691 9.5367431640625e-07 C 8.973908424377441 9.5367431640625e-07 11.56219863891602 2.588240623474121 11.56219863891602 5.780991077423096 C 11.56219863891602 8.97374153137207 8.973908424377441 11.56198120117188 5.781098365783691 11.56198120117188 C 2.588288307189941 11.56198120117188 -1.9073486328125e-06 8.97374153137207 -1.9073486328125e-06 5.780991077423096 C -1.9073486328125e-06 2.588240623474121 2.588288307189941 9.5367431640625e-07 5.781098365783691 9.5367431640625e-07 Z" stroke="none" fill="#f1fcf7"/>
    </g>
    <g id="Group_6199" data-name="Group 6199" transform="translate(805.806 190.491)">
      <path id="Path_11180" data-name="Path 11180" d="M.445,0A.445.445,0,0,1,.889.445v5.04a.445.445,0,0,1-.889,0V.445A.445.445,0,0,1,.445,0Z" transform="translate(2.52 0)" fill="#f1fcf7"/>
      <path id="Path_11179" data-name="Path 11179" d="M.445,0A.445.445,0,0,1,.889.445v5.04a.445.445,0,1,1-.889,0V.445A.445.445,0,0,1,.445,0Z" transform="translate(5.929 2.52) rotate(90)" fill="#f1fcf7"/>
    </g>
  </g>
</svg>
