<svg xmlns="http://www.w3.org/2000/svg" width="30.563" height="30.563" viewBox="0 0 30.563 30.563">
  <path id="twitter" d="M28.359,0H2.2A2.2,2.2,0,0,0,0,2.2V28.359a2.2,2.2,0,0,0,2.2,2.2H28.359a2.2,2.2,0,0,0,2.2-2.2V2.2a2.2,2.2,0,0,0-2.2-2.2Zm-6.1,11.915q.01.226.01.453a9.912,9.912,0,0,1-9.98,9.98h0a9.928,9.928,0,0,1-5.376-1.576,7.134,7.134,0,0,0,.837.048,7.038,7.038,0,0,0,4.356-1.5,3.511,3.511,0,0,1-3.277-2.436,3.5,3.5,0,0,0,1.584-.06A3.508,3.508,0,0,1,7.6,13.385c0-.016,0-.03,0-.045a3.483,3.483,0,0,0,1.589.439A3.51,3.51,0,0,1,8.1,9.1a9.958,9.958,0,0,0,7.23,3.665,3.509,3.509,0,0,1,5.977-3.2,7.035,7.035,0,0,0,2.227-.851,3.521,3.521,0,0,1-1.542,1.94,7,7,0,0,0,2.014-.552,7.128,7.128,0,0,1-1.75,1.816Zm0,0" transform="translate(0)" fill="rgba(255,255,255,0.54)"/>
</svg>
