<svg id="youtube" xmlns="http://www.w3.org/2000/svg" width="30.563" height="30.563" viewBox="0 0 30.563 30.563">
  <path id="Path_10880" data-name="Path 10880" d="M224.113,213.314l4.579-2.637-4.579-2.637Zm0,0" transform="translate(-210.516 -195.518)" fill="rgba(255,255,255,0.54)"/>
  <path id="Path_10881" data-name="Path 10881" d="M28.359,0H2.2A2.2,2.2,0,0,0,0,2.2V28.359a2.2,2.2,0,0,0,2.2,2.2H28.359a2.2,2.2,0,0,0,2.2-2.2V2.2a2.2,2.2,0,0,0-2.2-2.2ZM24.83,15.3a25.222,25.222,0,0,1-.393,4.594,2.393,2.393,0,0,1-1.683,1.683,58.082,58.082,0,0,1-7.472.393s-5.962,0-7.472-.409a2.393,2.393,0,0,1-1.683-1.683,25.111,25.111,0,0,1-.393-4.593,25.2,25.2,0,0,1,.393-4.593,2.441,2.441,0,0,1,1.683-1.7A58.082,58.082,0,0,1,15.282,8.6s5.978,0,7.472.409a2.393,2.393,0,0,1,1.683,1.683A23.934,23.934,0,0,1,24.83,15.3Zm0,0" transform="translate(0)" fill="rgba(255,255,255,0.54)"/>
</svg>
